<svg width="657" height="914" xmlns="http://www.w3.org/2000/svg" xmlns:xlink="http://www.w3.org/1999/xlink" xml:space="preserve" overflow="hidden"><g transform="translate(-3156 -822)"><rect x="3383.5" y="881.5" width="186" height="52.0002" stroke="#FFFFFF" stroke-width="9.16667" stroke-linejoin="round" stroke-miterlimit="10" fill="#012169"/><path d="M3406.5 881.393C3406.93 850.743 3438.84 826.168 3477.77 826.503 3515.55 826.828 3546.28 850.537 3547.47 880.262Z" stroke="#FFFFFF" stroke-width="9.16667" stroke-miterlimit="8" fill="#012169" fill-rule="evenodd"/><rect x="3356.5" y="934.5" width="240" height="600" stroke="#FFFFFF" stroke-width="9.16667" stroke-linejoin="round" stroke-miterlimit="10" fill="#012169"/><path d="M3430.5 958.5C3430.5 965.364 3440.8 970.923 3453.5 970.923 3466.2 970.923 3476.5 965.364 3476.5 958.5 3476.5 965.364 3486.8 970.923 3499.5 970.923 3512.2 970.923 3522.5 965.364 3522.5 958.5L3522.5 1020.6 3522.49 1020.63 3521.57 1030.99C3517.28 1054.68 3498.73 1072.5 3476.5 1072.5 3454.27 1072.5 3435.72 1054.68 3431.43 1030.99L3430.51 1020.63 3430.5 1020.6 3430.5 1020.52 3430.5 1020.51 3430.5 1020.51Z" stroke="#FFFFFF" stroke-width="9.16667" stroke-miterlimit="8" fill="#012169" fill-rule="evenodd"/><text fill="#FFFFFF" font-family="Segoe UI,Segoe UI_MSFontService,sans-serif" font-weight="700" font-size="83" transform="matrix(1 0 0 1 3452.51 1046)">$</text><rect x="3398.5" y="1098.5" width="32" height="50.9999" stroke="#FFFFFF" stroke-width="9.16667" stroke-linejoin="round" stroke-miterlimit="10" fill="#012169"/><rect x="3460.5" y="1098.5" width="33" height="50.9999" stroke="#FFFFFF" stroke-width="9.16667" stroke-linejoin="round" stroke-miterlimit="10" fill="#012169"/><rect x="3522.5" y="1098.5" width="33" height="50.9999" stroke="#FFFFFF" stroke-width="9.16667" stroke-linejoin="round" stroke-miterlimit="10" fill="#012169"/><rect x="3398.5" y="1174.5" width="32" height="50.9999" stroke="#FFFFFF" stroke-width="9.16667" stroke-linejoin="round" stroke-miterlimit="10" fill="#012169"/><rect x="3460.5" y="1174.5" width="33" height="50.9999" stroke="#FFFFFF" stroke-width="9.16667" stroke-linejoin="round" stroke-miterlimit="10" fill="#012169"/><rect x="3522.5" y="1174.5" width="33" height="50.9999" stroke="#FFFFFF" stroke-width="9.16667" stroke-linejoin="round" stroke-miterlimit="10" fill="#012169"/><rect x="3398.5" y="1251.5" width="32" height="50.9999" stroke="#FFFFFF" stroke-width="9.16667" stroke-linejoin="round" stroke-miterlimit="10" fill="#012169"/><rect x="3460.5" y="1251.5" width="33" height="50.9999" stroke="#FFFFFF" stroke-width="9.16667" stroke-linejoin="round" stroke-miterlimit="10" fill="#012169"/><rect x="3522.5" y="1251.5" width="33" height="50.9999" stroke="#FFFFFF" stroke-width="9.16667" stroke-linejoin="round" stroke-miterlimit="10" fill="#012169"/><path d="M3755.5 1143.5 3574.5 1143.5 3574.5 1037.9 3665 1011.5 3755.5 1037.9Z" stroke="#FFFFFF" stroke-width="9.16667" stroke-linecap="round" stroke-linejoin="round" stroke-miterlimit="10" fill="#012169" fill-rule="evenodd"/><rect x="3540.5" y="1069.5" width="249" height="466" stroke="#FFFFFF" stroke-width="9.16667" stroke-linejoin="round" stroke-miterlimit="10" fill="#012169"/><rect x="3558.5" y="1085.5" width="213" height="87" stroke="#FFFFFF" stroke-width="9.16667" stroke-linecap="round" stroke-linejoin="round" stroke-miterlimit="10" fill="#012169"/><text fill="#FFFFFF" font-family="Segoe UI,Segoe UI_MSFontService,sans-serif" font-weight="700" font-size="73" transform="matrix(1 0 0 1 3643.37 1156)">$</text><rect x="3648.5" y="1201.5" width="33" height="51.0002" stroke="#FFFFFF" stroke-width="9.16667" stroke-linejoin="round" stroke-miterlimit="10" fill="#012169"/><rect x="3719.5" y="1201.5" width="32" height="51.0002" stroke="#FFFFFF" stroke-width="9.16667" stroke-linejoin="round" stroke-miterlimit="10" fill="#012169"/><rect x="3580.5" y="1201.5" width="33" height="51.0002" stroke="#FFFFFF" stroke-width="9.16667" stroke-linejoin="round" stroke-miterlimit="10" fill="#012169"/><rect x="3648.5" y="1277.5" width="33" height="51.0002" stroke="#FFFFFF" stroke-width="9.16667" stroke-linejoin="round" stroke-miterlimit="10" fill="#012169"/><rect x="3719.5" y="1277.5" width="32" height="51.0002" stroke="#FFFFFF" stroke-width="9.16667" stroke-linejoin="round" stroke-miterlimit="10" fill="#012169"/><rect x="3648.5" y="1352.5" width="33" height="50.9999" stroke="#FFFFFF" stroke-width="9.16667" stroke-linejoin="round" stroke-miterlimit="10" fill="#012169"/><rect x="3719.5" y="1352.5" width="32" height="50.9999" stroke="#FFFFFF" stroke-width="9.16667" stroke-linejoin="round" stroke-miterlimit="10" fill="#012169"/><rect x="3580.5" y="1352.5" width="33" height="50.9999" stroke="#FFFFFF" stroke-width="9.16667" stroke-linejoin="round" stroke-miterlimit="10" fill="#012169"/><rect x="3664.5" y="1482.5" width="33" height="50.9999" stroke="#FFFFFF" stroke-width="9.16667" stroke-linejoin="round" stroke-miterlimit="10" fill="#012169"/><rect x="3632.5" y="1482.5" width="32" height="50.9999" stroke="#FFFFFF" stroke-width="9.16667" stroke-linejoin="round" stroke-miterlimit="10" fill="#012169"/><rect x="3580.5" y="1277.5" width="33" height="51.0002" stroke="#FFFFFF" stroke-width="9.16667" stroke-linejoin="round" stroke-miterlimit="10" fill="#012169"/><rect x="3161.5" y="1284.5" width="419" height="15.9998" stroke="#FFFFFF" stroke-width="9.16667" stroke-linejoin="round" stroke-miterlimit="10" fill="#012169"/><path d="M3161.5 1284.5 3371.5 1129.5 3581.5 1284.5Z" stroke="#FFFFFF" stroke-width="9.16667" stroke-linejoin="round" stroke-miterlimit="10" fill="#012169" fill-rule="evenodd"/><path d="M3319.5 1216.5C3319.5 1187.78 3342.78 1164.5 3371.5 1164.5 3400.22 1164.5 3423.5 1187.78 3423.5 1216.5 3423.5 1245.22 3400.22 1268.5 3371.5 1268.5 3342.78 1268.5 3319.5 1245.22 3319.5 1216.5Z" stroke="#FFFFFF" stroke-width="9.16667" stroke-miterlimit="8" fill="#012169" fill-rule="evenodd"/><text fill="#FFFFFF" font-family="Segoe UI,Segoe UI_MSFontService,sans-serif" font-weight="700" font-size="73" transform="matrix(1 0 0 1 3350.05 1243)">$</text><path d="M3441.5 1205.5 3525.92 1266.89" stroke="#FFFFFF" stroke-width="9.16667" stroke-linecap="round" stroke-miterlimit="8" fill="#012169" fill-rule="evenodd"/><path d="M3429.5 1267.5 3501.49 1267.5" stroke="#FFFFFF" stroke-width="9.16667" stroke-linecap="round" stroke-miterlimit="8" fill="#012169" fill-rule="evenodd"/><path d="M0 0 84.4196 61.3939" stroke="#FFFFFF" stroke-width="9.16667" stroke-linecap="round" stroke-miterlimit="8" fill="#012169" fill-rule="evenodd" transform="matrix(-1 0 0 1 3303.92 1205.5)"/><path d="M0 0 71.985 0.000360892" stroke="#FFFFFF" stroke-width="9.16667" stroke-linecap="round" stroke-miterlimit="8" fill="#012169" fill-rule="evenodd" transform="matrix(-1 0 0 1 3316.49 1267.5)"/><rect x="3338.5" y="1302.5" width="64" height="21" stroke="#FFFFFF" stroke-width="9.16667" stroke-linejoin="round" stroke-miterlimit="10" fill="#012169"/><rect x="3354.5" y="1323.5" width="32" height="160" stroke="#FFFFFF" stroke-width="9.16667" stroke-miterlimit="8" fill="#012169"/><rect x="3338.5" y="1483.5" width="64" height="21" stroke="#FFFFFF" stroke-width="9.16667" stroke-linecap="square" stroke-linejoin="round" stroke-miterlimit="10" fill="#012169"/><rect x="3417.5" y="1302.5" width="64" height="21" stroke="#FFFFFF" stroke-width="9.16667" stroke-linejoin="round" stroke-miterlimit="10" fill="#012169"/><rect x="3433.5" y="1323.5" width="32" height="160" stroke="#FFFFFF" stroke-width="9.16667" stroke-miterlimit="8" fill="#012169"/><rect x="3417.5" y="1483.5" width="64" height="21" stroke="#FFFFFF" stroke-width="9.16667" stroke-linecap="square" stroke-linejoin="round" stroke-miterlimit="10" fill="#012169"/><rect x="3258.5" y="1302.5" width="64" height="21" stroke="#FFFFFF" stroke-width="9.16667" stroke-linejoin="round" stroke-miterlimit="10" fill="#012169"/><rect x="3274.5" y="1323.5" width="32" height="160" stroke="#FFFFFF" stroke-width="9.16667" stroke-miterlimit="8" fill="#012169"/><rect x="3258.5" y="1483.5" width="64" height="21" stroke="#FFFFFF" stroke-width="9.16667" stroke-linecap="square" stroke-linejoin="round" stroke-miterlimit="10" fill="#012169"/><rect x="3498.5" y="1302.5" width="64.0002" height="21" stroke="#FFFFFF" stroke-width="9.16667" stroke-linejoin="round" stroke-miterlimit="10" fill="#012169"/><rect x="3514.5" y="1323.5" width="32" height="160" stroke="#FFFFFF" stroke-width="9.16667" stroke-miterlimit="8" fill="#012169"/><rect x="3498.5" y="1483.5" width="64.0002" height="21" stroke="#FFFFFF" stroke-width="9.16667" stroke-linecap="square" stroke-linejoin="round" stroke-miterlimit="10" fill="#012169"/><rect x="3178.5" y="1302.5" width="63" height="21" stroke="#FFFFFF" stroke-width="9.16667" stroke-linejoin="round" stroke-miterlimit="10" fill="#012169"/><rect x="3193.5" y="1323.5" width="33" height="160" stroke="#FFFFFF" stroke-width="9.16667" stroke-miterlimit="8" fill="#012169"/><rect x="3178.5" y="1483.5" width="63" height="21" stroke="#FFFFFF" stroke-width="9.16667" stroke-linecap="square" stroke-linejoin="round" stroke-miterlimit="10" fill="#012169"/><rect x="3160.5" y="1505.5" width="419" height="29.9999" stroke="#FFFFFF" stroke-width="9.16667" stroke-linejoin="round" stroke-miterlimit="10" fill="#012169"/><rect x="3580.5" y="1276.5" width="33" height="51.0002" stroke="#FFFFFF" stroke-width="9.16667" stroke-linejoin="round" stroke-miterlimit="10" fill="#012169"/><path d="M3665.44 1538.79 3707.42 1590.36 3680.45 1612.31 3638.47 1560.73Z" stroke="#FFFFFF" stroke-width="11.4583" stroke-miterlimit="8" fill="#012169" fill-rule="evenodd"/><path d="M3718.04 1581.72 3804.33 1687.72 3756.13 1726.96 3669.83 1620.95Z" stroke="#FFFFFF" stroke-width="11.4583" stroke-miterlimit="8" fill="#012169" fill-rule="evenodd"/><path d="M3421.22 1531.64C3362.81 1459.89 3373.63 1354.39 3445.38 1295.98 3517.12 1237.58 3622.63 1248.4 3681.03 1320.15 3739.44 1391.89 3728.62 1497.4 3656.87 1555.8 3585.12 1614.2 3479.62 1603.39 3421.22 1531.64Z" stroke="#FFFFFF" stroke-width="11.4583" stroke-miterlimit="8" fill="#012169" fill-rule="evenodd"/><path d="M3447.2 1510.49C3400.47 1453.09 3409.13 1368.69 3466.53 1321.96 3523.92 1275.24 3608.33 1283.9 3655.05 1341.29 3701.77 1398.69 3693.12 1483.1 3635.72 1529.82 3578.32 1576.54 3493.92 1567.89 3447.2 1510.49Z" stroke="#FFFFFF" stroke-width="11.4583" stroke-miterlimit="8" fill="#012169" fill-rule="evenodd"/><path d="M3474.24 1488.48C3439.67 1446.02 3446.07 1383.57 3488.54 1349.01 3531 1314.44 3593.45 1320.84 3628.01 1363.31 3662.58 1405.77 3656.17 1468.21 3613.71 1502.78 3571.25 1537.34 3508.8 1530.94 3474.24 1488.48Z" stroke="#FFFFFF" stroke-width="11.4583" stroke-miterlimit="8" fill="#012169" fill-rule="evenodd"/><path d="M3436.65 1446.5 3503.2 1428.11 3507.6 1444.02 3441.04 1462.4Z" stroke="#002060" stroke-width="4.58333" stroke-miterlimit="8" fill="#012169" fill-rule="evenodd"/><path d="M3535.29 1318.11C3596.84 1309.29 3651.96 1351.37 3658.41 1412.1 3664.86 1472.84 3620.19 1529.23 3558.65 1538.05 3523.52 1543.09 3488.72 1531.49 3464.73 1506.75L3546.97 1428.08Z" stroke="#002060" stroke-width="4.58333" stroke-miterlimit="8" fill="#012169" fill-rule="evenodd"/></g></svg>