<?xml version="1.0" encoding="UTF-8"?>
<svg xmlns="http://www.w3.org/2000/svg" xmlns:xlink="http://www.w3.org/1999/xlink" width="504" height="360" viewBox="0 0 504 360">
<defs>
<g>
<g id="glyph-0-0">
<path d="M 3.277344 0 L 2.503906 0 L 2.503906 -4.929688 C 2.320312 -4.75 2.074219 -4.574219 1.773438 -4.394531 C 1.46875 -4.21875 1.199219 -4.085938 0.957031 -3.996094 L 0.957031 -4.742188 C 1.390625 -4.945312 1.769531 -5.195312 2.09375 -5.484375 C 2.417969 -5.773438 2.644531 -6.054688 2.78125 -6.324219 L 3.277344 -6.324219 Z M 3.277344 0 "/>
</g>
<g id="glyph-0-1">
<path d="M 0.367188 -3.105469 C 0.367188 -3.851562 0.441406 -4.449219 0.59375 -4.90625 C 0.75 -5.359375 0.976562 -5.710938 1.277344 -5.957031 C 1.582031 -6.203125 1.960938 -6.324219 2.417969 -6.324219 C 2.757812 -6.324219 3.054688 -6.257812 3.308594 -6.121094 C 3.5625 -5.984375 3.773438 -5.789062 3.941406 -5.53125 C 4.105469 -5.277344 4.238281 -4.964844 4.332031 -4.59375 C 4.425781 -4.226562 4.472656 -3.730469 4.472656 -3.105469 C 4.472656 -2.367188 4.398438 -1.769531 4.246094 -1.316406 C 4.09375 -0.863281 3.867188 -0.511719 3.5625 -0.265625 C 3.261719 -0.015625 2.878906 0.109375 2.417969 0.109375 C 1.8125 0.109375 1.335938 -0.109375 0.988281 -0.546875 C 0.574219 -1.070312 0.367188 -1.921875 0.367188 -3.105469 M 1.160156 -3.105469 C 1.160156 -2.074219 1.28125 -1.382812 1.523438 -1.042969 C 1.765625 -0.699219 2.0625 -0.527344 2.417969 -0.527344 C 2.773438 -0.527344 3.074219 -0.699219 3.316406 -1.042969 C 3.558594 -1.386719 3.679688 -2.074219 3.679688 -3.105469 C 3.679688 -4.144531 3.558594 -4.832031 3.316406 -5.171875 C 3.074219 -5.515625 2.773438 -5.683594 2.410156 -5.683594 C 2.054688 -5.683594 1.773438 -5.535156 1.558594 -5.234375 C 1.292969 -4.851562 1.160156 -4.140625 1.160156 -3.105469 Z M 1.160156 -3.105469 "/>
</g>
<g id="glyph-0-2">
<path d="M 4.429688 -0.742188 L 4.429688 0 L 0.265625 0 C 0.261719 -0.1875 0.289062 -0.367188 0.355469 -0.539062 C 0.460938 -0.820312 0.632812 -1.101562 0.867188 -1.375 C 1.097656 -1.648438 1.4375 -1.96875 1.878906 -2.328125 C 2.5625 -2.890625 3.023438 -3.335938 3.265625 -3.664062 C 3.507812 -3.992188 3.625 -4.300781 3.625 -4.59375 C 3.625 -4.898438 3.515625 -5.160156 3.296875 -5.367188 C 3.078125 -5.578125 2.792969 -5.683594 2.441406 -5.683594 C 2.066406 -5.683594 1.769531 -5.574219 1.546875 -5.351562 C 1.324219 -5.125 1.210938 -4.816406 1.207031 -4.421875 L 0.414062 -4.503906 C 0.46875 -5.097656 0.671875 -5.546875 1.027344 -5.859375 C 1.382812 -6.167969 1.859375 -6.324219 2.457031 -6.324219 C 3.0625 -6.324219 3.539062 -6.15625 3.894531 -5.824219 C 4.246094 -5.488281 4.421875 -5.070312 4.421875 -4.578125 C 4.421875 -4.324219 4.371094 -4.078125 4.265625 -3.832031 C 4.164062 -3.589844 3.992188 -3.332031 3.753906 -3.0625 C 3.515625 -2.792969 3.117188 -2.425781 2.5625 -1.957031 C 2.097656 -1.566406 1.800781 -1.300781 1.667969 -1.164062 C 1.535156 -1.023438 1.425781 -0.882812 1.339844 -0.742188 Z M 4.429688 -0.742188 "/>
</g>
<g id="glyph-0-3">
<path d="M 0.371094 -1.664062 L 1.144531 -1.765625 C 1.230469 -1.328125 1.382812 -1.011719 1.597656 -0.820312 C 1.808594 -0.625 2.070312 -0.527344 2.375 -0.527344 C 2.738281 -0.527344 3.046875 -0.65625 3.296875 -0.90625 C 3.546875 -1.160156 3.671875 -1.472656 3.675781 -1.84375 C 3.671875 -2.199219 3.558594 -2.492188 3.324219 -2.722656 C 3.09375 -2.953125 2.796875 -3.066406 2.441406 -3.066406 C 2.292969 -3.066406 2.113281 -3.039062 1.894531 -2.980469 L 1.980469 -3.660156 C 2.03125 -3.65625 2.074219 -3.652344 2.105469 -3.652344 C 2.433594 -3.652344 2.730469 -3.738281 2.996094 -3.910156 C 3.257812 -4.082031 3.390625 -4.347656 3.390625 -4.703125 C 3.390625 -4.988281 3.292969 -5.222656 3.101562 -5.410156 C 2.910156 -5.597656 2.664062 -5.6875 2.359375 -5.6875 C 2.058594 -5.6875 1.808594 -5.59375 1.605469 -5.40625 C 1.40625 -5.214844 1.277344 -4.933594 1.21875 -4.554688 L 0.445312 -4.691406 C 0.542969 -5.210938 0.757812 -5.613281 1.089844 -5.898438 C 1.425781 -6.183594 1.84375 -6.324219 2.34375 -6.324219 C 2.6875 -6.324219 3.003906 -6.25 3.292969 -6.105469 C 3.582031 -5.957031 3.800781 -5.753906 3.957031 -5.5 C 4.109375 -5.246094 4.183594 -4.972656 4.183594 -4.6875 C 4.183594 -4.414062 4.113281 -4.167969 3.964844 -3.945312 C 3.820312 -3.722656 3.605469 -3.542969 3.316406 -3.410156 C 3.691406 -3.324219 3.980469 -3.148438 4.183594 -2.875 C 4.390625 -2.605469 4.496094 -2.265625 4.496094 -1.859375 C 4.496094 -1.3125 4.292969 -0.84375 3.894531 -0.460938 C 3.492188 -0.078125 2.984375 0.113281 2.371094 0.113281 C 1.820312 0.113281 1.359375 -0.0546875 0.996094 -0.382812 C 0.628906 -0.710938 0.421875 -1.140625 0.371094 -1.664062 Z M 0.371094 -1.664062 "/>
</g>
<g id="glyph-0-4">
<path d="M 2.84375 0 L 2.84375 -1.507812 L 0.113281 -1.507812 L 0.113281 -2.21875 L 2.988281 -6.300781 L 3.617188 -6.300781 L 3.617188 -2.21875 L 4.46875 -2.21875 L 4.46875 -1.507812 L 3.617188 -1.507812 L 3.617188 0 L 2.84375 0 M 2.84375 -2.21875 L 2.84375 -5.058594 L 0.871094 -2.21875 Z M 2.84375 -2.21875 "/>
</g>
<g id="glyph-0-5">
<path d="M 4.378906 -4.757812 L 3.609375 -4.695312 C 3.539062 -5 3.441406 -5.21875 3.316406 -5.359375 C 3.109375 -5.578125 2.851562 -5.6875 2.542969 -5.6875 C 2.296875 -5.6875 2.082031 -5.621094 1.894531 -5.484375 C 1.652344 -5.304688 1.460938 -5.046875 1.320312 -4.703125 C 1.179688 -4.363281 1.105469 -3.878906 1.101562 -3.25 C 1.285156 -3.53125 1.515625 -3.742188 1.785156 -3.878906 C 2.050781 -4.015625 2.335938 -4.085938 2.628906 -4.085938 C 3.144531 -4.085938 3.585938 -3.898438 3.945312 -3.515625 C 4.308594 -3.136719 4.492188 -2.648438 4.492188 -2.046875 C 4.492188 -1.648438 4.40625 -1.28125 4.234375 -0.941406 C 4.0625 -0.605469 3.828125 -0.34375 3.53125 -0.164062 C 3.234375 0.015625 2.894531 0.109375 2.519531 0.109375 C 1.875 0.109375 1.347656 -0.128906 0.941406 -0.605469 C 0.535156 -1.078125 0.332031 -1.859375 0.332031 -2.949219 C 0.332031 -4.164062 0.554688 -5.050781 1.003906 -5.601562 C 1.398438 -6.085938 1.925781 -6.324219 2.589844 -6.324219 C 3.085938 -6.324219 3.492188 -6.1875 3.808594 -5.910156 C 4.125 -5.628906 4.316406 -5.246094 4.378906 -4.757812 M 1.21875 -2.039062 C 1.21875 -1.773438 1.277344 -1.519531 1.390625 -1.277344 C 1.503906 -1.03125 1.660156 -0.847656 1.863281 -0.71875 C 2.066406 -0.59375 2.28125 -0.527344 2.503906 -0.527344 C 2.832031 -0.527344 3.113281 -0.660156 3.347656 -0.925781 C 3.582031 -1.1875 3.699219 -1.546875 3.699219 -2 C 3.699219 -2.433594 3.582031 -2.777344 3.351562 -3.027344 C 3.121094 -3.277344 2.828125 -3.402344 2.476562 -3.402344 C 2.125 -3.402344 1.828125 -3.277344 1.585938 -3.027344 C 1.34375 -2.777344 1.21875 -2.449219 1.21875 -2.039062 Z M 1.21875 -2.039062 "/>
</g>
<g id="glyph-0-6">
<path d="M -0.0117188 0 L 2.40625 -6.300781 L 3.304688 -6.300781 L 5.882812 0 L 4.933594 0 L 4.199219 -1.90625 L 1.5625 -1.90625 L 0.871094 0 L -0.0117188 0 M 1.804688 -2.585938 L 3.941406 -2.585938 L 3.28125 -4.332031 C 3.082031 -4.859375 2.933594 -5.296875 2.835938 -5.636719 C 2.753906 -5.234375 2.640625 -4.832031 2.496094 -4.433594 Z M 1.804688 -2.585938 "/>
</g>
<g id="glyph-0-7">
<path d="M 0.671875 0 L 0.671875 -6.300781 L 1.527344 -6.300781 L 4.835938 -1.351562 L 4.835938 -6.300781 L 5.632812 -6.300781 L 5.632812 0 L 4.777344 0 L 1.46875 -4.949219 L 1.46875 0 Z M 0.671875 0 "/>
</g>
<g id="glyph-0-8">
<path d="M 0.175781 0 L 0.175781 -0.773438 L 3.402344 -4.808594 C 3.632812 -5.09375 3.851562 -5.34375 4.054688 -5.554688 L 0.542969 -5.554688 L 0.542969 -6.300781 L 5.054688 -6.300781 L 5.054688 -5.554688 L 1.515625 -1.1875 L 1.132812 -0.742188 L 5.15625 -0.742188 L 5.15625 0 Z M 0.175781 0 "/>
</g>
<g id="glyph-0-9">
<path d="M 5.171875 -2.207031 L 6.007812 -2 C 5.832031 -1.3125 5.519531 -0.792969 5.0625 -0.433594 C 4.609375 -0.0742188 4.054688 0.109375 3.398438 0.109375 C 2.71875 0.109375 2.167969 -0.03125 1.742188 -0.308594 C 1.316406 -0.582031 0.992188 -0.984375 0.769531 -1.507812 C 0.550781 -2.03125 0.4375 -2.59375 0.4375 -3.195312 C 0.4375 -3.851562 0.5625 -4.425781 0.8125 -4.914062 C 1.066406 -5.402344 1.421875 -5.773438 1.882812 -6.027344 C 2.347656 -6.28125 2.855469 -6.40625 3.410156 -6.40625 C 4.042969 -6.40625 4.570312 -6.246094 5 -5.925781 C 5.429688 -5.605469 5.730469 -5.152344 5.898438 -4.570312 L 5.078125 -4.378906 C 4.933594 -4.835938 4.722656 -5.171875 4.441406 -5.378906 C 4.164062 -5.589844 3.816406 -5.695312 3.394531 -5.695312 C 2.910156 -5.695312 2.503906 -5.578125 2.179688 -5.34375 C 1.855469 -5.113281 1.628906 -4.800781 1.496094 -4.410156 C 1.363281 -4.019531 1.296875 -3.617188 1.296875 -3.203125 C 1.296875 -2.664062 1.375 -2.199219 1.53125 -1.796875 C 1.6875 -1.398438 1.929688 -1.101562 2.261719 -0.902344 C 2.589844 -0.703125 2.945312 -0.605469 3.332031 -0.605469 C 3.796875 -0.605469 4.191406 -0.742188 4.515625 -1.007812 C 4.839844 -1.277344 5.058594 -1.679688 5.171875 -2.207031 Z M 5.171875 -2.207031 "/>
</g>
<g id="glyph-0-10">
<path d="M 0.644531 0 L 0.644531 -6.300781 L 3.007812 -6.300781 C 3.488281 -6.300781 3.875 -6.234375 4.164062 -6.109375 C 4.457031 -5.980469 4.683594 -5.785156 4.847656 -5.519531 C 5.015625 -5.253906 5.097656 -4.976562 5.097656 -4.6875 C 5.097656 -4.417969 5.023438 -4.164062 4.875 -3.925781 C 4.730469 -3.691406 4.511719 -3.496094 4.214844 -3.351562 C 4.597656 -3.238281 4.890625 -3.050781 5.09375 -2.78125 C 5.296875 -2.511719 5.402344 -2.191406 5.402344 -1.828125 C 5.402344 -1.53125 5.339844 -1.257812 5.214844 -1.003906 C 5.089844 -0.75 4.9375 -0.554688 4.753906 -0.417969 C 4.570312 -0.28125 4.339844 -0.175781 4.0625 -0.105469 C 3.785156 -0.0351562 3.449219 0 3.046875 0 L 0.644531 0 M 1.476562 -3.652344 L 2.839844 -3.652344 C 3.210938 -3.652344 3.476562 -3.675781 3.636719 -3.726562 C 3.847656 -3.789062 4.007812 -3.894531 4.113281 -4.039062 C 4.222656 -4.183594 4.273438 -4.367188 4.273438 -4.589844 C 4.273438 -4.796875 4.226562 -4.980469 4.125 -5.140625 C 4.023438 -5.300781 3.882812 -5.410156 3.695312 -5.46875 C 3.507812 -5.527344 3.191406 -5.554688 2.738281 -5.554688 L 1.476562 -5.554688 L 1.476562 -3.652344 M 1.476562 -0.742188 L 3.046875 -0.742188 C 3.316406 -0.742188 3.503906 -0.753906 3.613281 -0.773438 C 3.804688 -0.808594 3.964844 -0.863281 4.09375 -0.945312 C 4.222656 -1.027344 4.328125 -1.140625 4.414062 -1.296875 C 4.496094 -1.449219 4.539062 -1.625 4.539062 -1.828125 C 4.539062 -2.0625 4.476562 -2.265625 4.355469 -2.4375 C 4.238281 -2.613281 4.070312 -2.734375 3.855469 -2.804688 C 3.644531 -2.875 3.335938 -2.910156 2.933594 -2.910156 L 1.476562 -2.910156 Z M 1.476562 -0.742188 "/>
</g>
<g id="glyph-0-11">
<path d="M 1.777344 0 L 0.109375 -6.300781 L 0.960938 -6.300781 L 1.921875 -2.171875 C 2.023438 -1.738281 2.113281 -1.308594 2.1875 -0.882812 C 2.347656 -1.554688 2.441406 -1.941406 2.46875 -2.046875 L 3.667969 -6.300781 L 4.675781 -6.300781 L 5.578125 -3.109375 C 5.804688 -2.320312 5.96875 -1.578125 6.066406 -0.882812 C 6.148438 -1.277344 6.253906 -1.734375 6.382812 -2.25 L 7.371094 -6.300781 L 8.207031 -6.300781 L 6.480469 0 L 5.675781 0 L 4.347656 -4.800781 C 4.238281 -5.199219 4.171875 -5.445312 4.152344 -5.539062 C 4.085938 -5.25 4.023438 -5.003906 3.964844 -4.800781 L 2.628906 0 Z M 1.777344 0 "/>
</g>
<g id="glyph-0-12">
<path d="M 0.394531 -2.023438 L 1.179688 -2.09375 C 1.21875 -1.777344 1.304688 -1.519531 1.441406 -1.316406 C 1.578125 -1.113281 1.789062 -0.953125 2.074219 -0.828125 C 2.363281 -0.703125 2.683594 -0.640625 3.042969 -0.640625 C 3.359375 -0.640625 3.640625 -0.6875 3.882812 -0.78125 C 4.128906 -0.875 4.308594 -1.007812 4.429688 -1.171875 C 4.546875 -1.335938 4.605469 -1.515625 4.605469 -1.710938 C 4.605469 -1.90625 4.550781 -2.082031 4.433594 -2.226562 C 4.320312 -2.375 4.128906 -2.5 3.867188 -2.601562 C 3.699219 -2.664062 3.324219 -2.769531 2.746094 -2.90625 C 2.167969 -3.046875 1.761719 -3.175781 1.53125 -3.300781 C 1.230469 -3.457031 1.003906 -3.652344 0.855469 -3.886719 C 0.710938 -4.121094 0.636719 -4.382812 0.636719 -4.671875 C 0.636719 -4.988281 0.726562 -5.285156 0.90625 -5.5625 C 1.085938 -5.839844 1.351562 -6.046875 1.699219 -6.191406 C 2.042969 -6.335938 2.429688 -6.40625 2.851562 -6.40625 C 3.320312 -6.40625 3.730469 -6.332031 4.089844 -6.179688 C 4.445312 -6.03125 4.71875 -5.808594 4.910156 -5.515625 C 5.101562 -5.226562 5.207031 -4.894531 5.21875 -4.523438 L 4.421875 -4.464844 C 4.378906 -4.863281 4.234375 -5.164062 3.984375 -5.367188 C 3.738281 -5.570312 3.371094 -5.671875 2.886719 -5.671875 C 2.382812 -5.671875 2.015625 -5.578125 1.785156 -5.394531 C 1.554688 -5.210938 1.441406 -4.988281 1.441406 -4.726562 C 1.441406 -4.5 1.519531 -4.3125 1.683594 -4.167969 C 1.84375 -4.023438 2.265625 -3.871094 2.941406 -3.71875 C 3.617188 -3.566406 4.082031 -3.433594 4.335938 -3.316406 C 4.703125 -3.148438 4.972656 -2.933594 5.148438 -2.675781 C 5.324219 -2.414062 5.410156 -2.117188 5.410156 -1.777344 C 5.410156 -1.445312 5.3125 -1.128906 5.121094 -0.832031 C 4.929688 -0.535156 4.652344 -0.304688 4.292969 -0.140625 C 3.933594 0.0234375 3.53125 0.109375 3.082031 0.109375 C 2.511719 0.109375 2.03125 0.0234375 1.648438 -0.140625 C 1.261719 -0.308594 0.960938 -0.558594 0.742188 -0.890625 C 0.523438 -1.226562 0.40625 -1.601562 0.394531 -2.023438 Z M 0.394531 -2.023438 "/>
</g>
<g id="glyph-0-13">
<path d="M 0.292969 -2.28125 C 0.292969 -3.125 0.527344 -3.753906 0.996094 -4.160156 C 1.390625 -4.496094 1.867188 -4.667969 2.433594 -4.667969 C 3.058594 -4.667969 3.570312 -4.460938 3.96875 -4.050781 C 4.367188 -3.640625 4.566406 -3.070312 4.566406 -2.347656 C 4.566406 -1.757812 4.480469 -1.296875 4.304688 -0.960938 C 4.128906 -0.625 3.871094 -0.363281 3.535156 -0.175781 C 3.199219 0.0117188 2.832031 0.101562 2.433594 0.101562 C 1.792969 0.101562 1.277344 -0.101562 0.882812 -0.511719 C 0.488281 -0.921875 0.292969 -1.511719 0.292969 -2.28125 M 1.085938 -2.28125 C 1.085938 -1.699219 1.214844 -1.257812 1.46875 -0.96875 C 1.722656 -0.679688 2.046875 -0.53125 2.433594 -0.53125 C 2.816406 -0.53125 3.136719 -0.679688 3.390625 -0.972656 C 3.644531 -1.261719 3.773438 -1.707031 3.773438 -2.308594 C 3.773438 -2.871094 3.644531 -3.300781 3.386719 -3.589844 C 3.132812 -3.878906 2.8125 -4.027344 2.433594 -4.027344 C 2.046875 -4.027344 1.722656 -3.882812 1.46875 -3.59375 C 1.214844 -3.304688 1.085938 -2.867188 1.085938 -2.28125 Z M 1.085938 -2.28125 "/>
</g>
<g id="glyph-0-14">
<path d="M 3.570312 0 L 3.570312 -0.671875 C 3.214844 -0.15625 2.734375 0.101562 2.121094 0.101562 C 1.851562 0.101562 1.601562 0.0507812 1.367188 -0.0507812 C 1.136719 -0.15625 0.960938 -0.285156 0.847656 -0.441406 C 0.734375 -0.597656 0.65625 -0.789062 0.609375 -1.015625 C 0.578125 -1.164062 0.5625 -1.40625 0.5625 -1.734375 L 0.5625 -4.5625 L 1.335938 -4.5625 L 1.335938 -2.03125 C 1.335938 -1.628906 1.351562 -1.355469 1.382812 -1.214844 C 1.433594 -1.011719 1.535156 -0.851562 1.691406 -0.738281 C 1.851562 -0.621094 2.046875 -0.5625 2.277344 -0.5625 C 2.507812 -0.5625 2.726562 -0.621094 2.929688 -0.742188 C 3.132812 -0.859375 3.277344 -1.023438 3.363281 -1.226562 C 3.445312 -1.429688 3.488281 -1.730469 3.488281 -2.117188 L 3.488281 -4.5625 L 4.261719 -4.5625 L 4.261719 0 Z M 3.570312 0 "/>
</g>
<g id="glyph-0-15">
<path d="M 0.570312 0 L 0.570312 -4.5625 L 1.265625 -4.5625 L 1.265625 -3.871094 C 1.445312 -4.195312 1.609375 -4.410156 1.757812 -4.511719 C 1.910156 -4.613281 2.074219 -4.667969 2.257812 -4.667969 C 2.515625 -4.667969 2.78125 -4.582031 3.050781 -4.417969 L 2.785156 -3.699219 C 2.59375 -3.8125 2.40625 -3.867188 2.21875 -3.867188 C 2.046875 -3.867188 1.894531 -3.816406 1.761719 -3.714844 C 1.628906 -3.613281 1.53125 -3.472656 1.472656 -3.292969 C 1.386719 -3.015625 1.34375 -2.714844 1.34375 -2.390625 L 1.34375 0 Z M 0.570312 0 "/>
</g>
<g id="glyph-0-16">
<path d="M 3.558594 -1.671875 L 4.320312 -1.574219 C 4.234375 -1.046875 4.023438 -0.636719 3.679688 -0.339844 C 3.339844 -0.046875 2.917969 0.101562 2.417969 0.101562 C 1.792969 0.101562 1.292969 -0.101562 0.914062 -0.507812 C 0.535156 -0.917969 0.34375 -1.503906 0.34375 -2.265625 C 0.34375 -2.757812 0.425781 -3.1875 0.589844 -3.558594 C 0.753906 -3.925781 1 -4.203125 1.335938 -4.390625 C 1.667969 -4.574219 2.03125 -4.667969 2.421875 -4.667969 C 2.917969 -4.667969 3.324219 -4.542969 3.640625 -4.289062 C 3.953125 -4.039062 4.15625 -3.683594 4.246094 -3.222656 L 3.492188 -3.105469 C 3.421875 -3.414062 3.296875 -3.644531 3.113281 -3.796875 C 2.929688 -3.953125 2.710938 -4.03125 2.453125 -4.03125 C 2.0625 -4.03125 1.746094 -3.890625 1.503906 -3.613281 C 1.261719 -3.332031 1.140625 -2.890625 1.140625 -2.285156 C 1.140625 -1.671875 1.257812 -1.226562 1.492188 -0.949219 C 1.726562 -0.671875 2.03125 -0.53125 2.410156 -0.53125 C 2.714844 -0.53125 2.96875 -0.625 3.171875 -0.8125 C 3.375 -1 3.503906 -1.285156 3.558594 -1.671875 Z M 3.558594 -1.671875 "/>
</g>
<g id="glyph-0-17">
<path d="M 3.703125 -1.46875 L 4.503906 -1.371094 C 4.378906 -0.902344 4.144531 -0.542969 3.804688 -0.285156 C 3.460938 -0.0273438 3.027344 0.101562 2.496094 0.101562 C 1.828125 0.101562 1.300781 -0.101562 0.910156 -0.511719 C 0.519531 -0.925781 0.320312 -1.5 0.320312 -2.242188 C 0.320312 -3.011719 0.519531 -3.605469 0.914062 -4.03125 C 1.3125 -4.453125 1.824219 -4.667969 2.453125 -4.667969 C 3.0625 -4.667969 3.5625 -4.457031 3.949219 -4.042969 C 4.335938 -3.628906 4.527344 -3.042969 4.527344 -2.289062 C 4.527344 -2.246094 4.527344 -2.175781 4.523438 -2.085938 L 1.121094 -2.085938 C 1.148438 -1.582031 1.292969 -1.199219 1.546875 -0.933594 C 1.800781 -0.664062 2.121094 -0.53125 2.5 -0.53125 C 2.785156 -0.53125 3.027344 -0.605469 3.226562 -0.757812 C 3.425781 -0.90625 3.585938 -1.144531 3.703125 -1.46875 M 1.164062 -2.71875 L 3.710938 -2.71875 C 3.679688 -3.105469 3.582031 -3.390625 3.421875 -3.582031 C 3.175781 -3.882812 2.855469 -4.03125 2.460938 -4.03125 C 2.105469 -4.03125 1.808594 -3.910156 1.566406 -3.675781 C 1.324219 -3.4375 1.191406 -3.117188 1.164062 -2.71875 Z M 1.164062 -2.71875 "/>
</g>
<g id="glyph-0-18">
<path d="M 0.796875 -3.683594 L 0.796875 -4.5625 L 1.675781 -4.5625 L 1.675781 -3.683594 L 0.796875 -3.683594 M 0.796875 0 L 0.796875 -0.882812 L 1.675781 -0.882812 L 1.675781 0 Z M 0.796875 0 "/>
</g>
<g id="glyph-0-19">
</g>
<g id="glyph-0-20">
<path d="M 0.679688 0 L 0.679688 -6.300781 L 3.054688 -6.300781 C 3.472656 -6.300781 3.792969 -6.277344 4.011719 -6.238281 C 4.324219 -6.1875 4.582031 -6.089844 4.789062 -5.945312 C 5 -5.800781 5.167969 -5.597656 5.296875 -5.335938 C 5.421875 -5.074219 5.488281 -4.789062 5.488281 -4.476562 C 5.488281 -3.941406 5.316406 -3.488281 4.976562 -3.117188 C 4.636719 -2.746094 4.019531 -2.5625 3.128906 -2.5625 L 1.511719 -2.5625 L 1.511719 0 L 0.679688 0 M 1.511719 -3.304688 L 3.140625 -3.304688 C 3.679688 -3.304688 4.0625 -3.40625 4.289062 -3.605469 C 4.515625 -3.804688 4.628906 -4.085938 4.628906 -4.453125 C 4.628906 -4.714844 4.5625 -4.941406 4.429688 -5.128906 C 4.292969 -5.316406 4.121094 -5.441406 3.902344 -5.5 C 3.761719 -5.539062 3.503906 -5.554688 3.125 -5.554688 L 1.511719 -5.554688 Z M 1.511719 -3.304688 "/>
</g>
<g id="glyph-0-21">
<path d="M 0.691406 0 L 0.691406 -6.300781 L 3.484375 -6.300781 C 4.046875 -6.300781 4.472656 -6.242188 4.765625 -6.128906 C 5.058594 -6.015625 5.289062 -5.816406 5.464844 -5.53125 C 5.640625 -5.242188 5.726562 -4.925781 5.726562 -4.582031 C 5.726562 -4.132812 5.582031 -3.757812 5.292969 -3.449219 C 5.003906 -3.144531 4.558594 -2.949219 3.953125 -2.867188 C 4.171875 -2.761719 4.339844 -2.65625 4.457031 -2.550781 C 4.699219 -2.328125 4.929688 -2.050781 5.148438 -1.714844 L 6.242188 0 L 5.195312 0 L 4.359375 -1.3125 C 4.117188 -1.6875 3.917969 -1.976562 3.761719 -2.179688 C 3.601562 -2.378906 3.460938 -2.519531 3.335938 -2.601562 C 3.210938 -2.679688 3.085938 -2.734375 2.957031 -2.765625 C 2.863281 -2.789062 2.707031 -2.796875 2.492188 -2.796875 L 1.527344 -2.796875 L 1.527344 0 L 0.691406 0 M 1.527344 -3.519531 L 3.316406 -3.519531 C 3.699219 -3.519531 3.996094 -3.558594 4.210938 -3.636719 C 4.425781 -3.714844 4.589844 -3.84375 4.699219 -4.015625 C 4.8125 -4.1875 4.867188 -4.378906 4.867188 -4.582031 C 4.867188 -4.878906 4.761719 -5.125 4.542969 -5.316406 C 4.328125 -5.507812 3.984375 -5.601562 3.519531 -5.601562 L 1.527344 -5.601562 Z M 1.527344 -3.519531 "/>
</g>
<g id="glyph-1-0">
<path d="M 1.027344 0 L 1.027344 -7.875 L 2.066406 -7.875 L 2.066406 0 Z M 1.027344 0 "/>
</g>
<g id="glyph-1-1">
<path d="M 0.726562 0 L 0.726562 -5.703125 L 1.59375 -5.703125 L 1.59375 -4.894531 C 2.015625 -5.519531 2.621094 -5.832031 3.410156 -5.832031 C 3.753906 -5.832031 4.070312 -5.769531 4.359375 -5.648438 C 4.648438 -5.523438 4.863281 -5.363281 5.007812 -5.160156 C 5.148438 -4.960938 5.25 -4.722656 5.304688 -4.445312 C 5.34375 -4.269531 5.359375 -3.953125 5.359375 -3.507812 L 5.359375 0 L 4.394531 0 L 4.394531 -3.46875 C 4.394531 -3.863281 4.355469 -4.15625 4.28125 -4.351562 C 4.207031 -4.546875 4.070312 -4.703125 3.878906 -4.820312 C 3.6875 -4.9375 3.464844 -4.996094 3.207031 -4.996094 C 2.792969 -4.996094 2.4375 -4.863281 2.140625 -4.601562 C 1.839844 -4.339844 1.691406 -3.84375 1.691406 -3.117188 L 1.691406 0 Z M 0.726562 0 "/>
</g>
<g id="glyph-1-2">
<path d="M 4.425781 0 L 4.425781 -0.71875 C 4.0625 -0.152344 3.53125 0.128906 2.832031 0.128906 C 2.375 0.128906 1.957031 0.00390625 1.578125 -0.246094 C 1.195312 -0.496094 0.898438 -0.847656 0.691406 -1.296875 C 0.480469 -1.746094 0.375 -2.261719 0.375 -2.847656 C 0.375 -3.414062 0.472656 -3.933594 0.660156 -4.394531 C 0.851562 -4.859375 1.136719 -5.214844 1.515625 -5.460938 C 1.894531 -5.710938 2.320312 -5.832031 2.789062 -5.832031 C 3.132812 -5.832031 3.4375 -5.761719 3.707031 -5.617188 C 3.976562 -5.46875 4.191406 -5.28125 4.359375 -5.046875 L 4.359375 -7.875 L 5.324219 -7.875 L 5.324219 0 L 4.425781 0 M 1.371094 -2.847656 C 1.371094 -2.117188 1.523438 -1.570312 1.832031 -1.207031 C 2.140625 -0.847656 2.503906 -0.664062 2.921875 -0.664062 C 3.34375 -0.664062 3.703125 -0.839844 4 -1.183594 C 4.292969 -1.53125 4.441406 -2.058594 4.441406 -2.765625 C 4.441406 -3.546875 4.292969 -4.121094 3.992188 -4.484375 C 3.691406 -4.851562 3.320312 -5.03125 2.878906 -5.03125 C 2.449219 -5.03125 2.089844 -4.855469 1.800781 -4.507812 C 1.515625 -4.15625 1.371094 -3.601562 1.371094 -2.847656 Z M 1.371094 -2.847656 "/>
</g>
<g id="glyph-1-3">
<path d="M 4.628906 -1.835938 L 5.628906 -1.714844 C 5.472656 -1.128906 5.179688 -0.675781 4.753906 -0.355469 C 4.328125 -0.03125 3.78125 0.128906 3.121094 0.128906 C 2.285156 0.128906 1.625 -0.128906 1.136719 -0.640625 C 0.648438 -1.15625 0.402344 -1.875 0.402344 -2.804688 C 0.402344 -3.761719 0.648438 -4.507812 1.144531 -5.039062 C 1.636719 -5.566406 2.277344 -5.832031 3.066406 -5.832031 C 3.828125 -5.832031 4.453125 -5.574219 4.9375 -5.054688 C 5.417969 -4.535156 5.660156 -3.804688 5.660156 -2.863281 C 5.660156 -2.804688 5.660156 -2.71875 5.65625 -2.605469 L 1.402344 -2.605469 C 1.4375 -1.976562 1.613281 -1.5 1.933594 -1.164062 C 2.253906 -0.832031 2.648438 -0.664062 3.125 -0.664062 C 3.480469 -0.664062 3.78125 -0.757812 4.035156 -0.945312 C 4.285156 -1.132812 4.484375 -1.429688 4.628906 -1.835938 M 1.457031 -3.398438 L 4.640625 -3.398438 C 4.597656 -3.878906 4.476562 -4.238281 4.273438 -4.480469 C 3.96875 -4.851562 3.566406 -5.039062 3.078125 -5.039062 C 2.632812 -5.039062 2.261719 -4.890625 1.957031 -4.59375 C 1.65625 -4.296875 1.488281 -3.898438 1.457031 -3.398438 Z M 1.457031 -3.398438 "/>
</g>
<g id="glyph-1-4">
<path d="M 0.0820312 0 L 2.164062 -2.964844 L 0.234375 -5.703125 L 1.445312 -5.703125 L 2.320312 -4.367188 C 2.484375 -4.113281 2.617188 -3.898438 2.71875 -3.726562 C 2.875 -3.964844 3.019531 -4.171875 3.152344 -4.355469 L 4.113281 -5.703125 L 5.269531 -5.703125 L 3.296875 -3.019531 L 5.417969 0 L 4.234375 0 L 3.0625 -1.773438 L 2.75 -2.25 L 1.25 0 Z M 0.0820312 0 "/>
</g>
<g id="glyph-1-5">
</g>
<g id="glyph-1-6">
<path d="M 2.835938 -0.863281 L 2.976562 -0.0117188 C 2.703125 0.046875 2.460938 0.0742188 2.246094 0.0742188 C 1.894531 0.0742188 1.621094 0.0195312 1.429688 -0.0898438 C 1.234375 -0.203125 1.097656 -0.347656 1.019531 -0.527344 C 0.941406 -0.710938 0.902344 -1.089844 0.902344 -1.671875 L 0.902344 -4.953125 L 0.195312 -4.953125 L 0.195312 -5.703125 L 0.902344 -5.703125 L 0.902344 -7.117188 L 1.863281 -7.695312 L 1.863281 -5.703125 L 2.835938 -5.703125 L 2.835938 -4.953125 L 1.863281 -4.953125 L 1.863281 -1.617188 C 1.863281 -1.339844 1.878906 -1.164062 1.914062 -1.085938 C 1.949219 -1.007812 2.003906 -0.945312 2.082031 -0.898438 C 2.160156 -0.851562 2.269531 -0.828125 2.410156 -0.828125 C 2.519531 -0.828125 2.660156 -0.839844 2.835938 -0.863281 Z M 2.835938 -0.863281 "/>
</g>
<g id="glyph-1-7">
<path d="M 0.367188 -2.851562 C 0.367188 -3.910156 0.660156 -4.691406 1.246094 -5.199219 C 1.738281 -5.621094 2.335938 -5.832031 3.039062 -5.832031 C 3.824219 -5.832031 4.464844 -5.574219 4.960938 -5.0625 C 5.460938 -4.546875 5.710938 -3.839844 5.710938 -2.933594 C 5.710938 -2.199219 5.597656 -1.621094 5.378906 -1.199219 C 5.160156 -0.78125 4.839844 -0.453125 4.417969 -0.21875 C 3.996094 0.0117188 3.539062 0.128906 3.039062 0.128906 C 2.242188 0.128906 1.597656 -0.128906 1.105469 -0.640625 C 0.613281 -1.152344 0.367188 -1.890625 0.367188 -2.851562 M 1.359375 -2.851562 C 1.359375 -2.121094 1.519531 -1.574219 1.835938 -1.210938 C 2.15625 -0.847656 2.554688 -0.664062 3.039062 -0.664062 C 3.519531 -0.664062 3.917969 -0.847656 4.238281 -1.214844 C 4.554688 -1.578125 4.714844 -2.136719 4.714844 -2.882812 C 4.714844 -3.589844 4.554688 -4.125 4.234375 -4.488281 C 3.914062 -4.851562 3.515625 -5.03125 3.039062 -5.03125 C 2.554688 -5.03125 2.15625 -4.851562 1.835938 -4.492188 C 1.519531 -4.128906 1.359375 -3.582031 1.359375 -2.851562 Z M 1.359375 -2.851562 "/>
</g>
<g id="glyph-1-8">
<path d="M 0.816406 0 L 0.816406 -7.875 L 2.382812 -7.875 L 4.25 -2.296875 C 4.421875 -1.78125 4.546875 -1.390625 4.625 -1.132812 C 4.714844 -1.417969 4.855469 -1.839844 5.042969 -2.394531 L 6.929688 -7.875 L 8.332031 -7.875 L 8.332031 0 L 7.328125 0 L 7.328125 -6.589844 L 5.039062 0 L 4.097656 0 L 1.820312 -6.703125 L 1.820312 0 Z M 0.816406 0 "/>
</g>
<g id="glyph-1-9">
<path d="M 4.445312 -0.703125 C 4.089844 -0.398438 3.746094 -0.183594 3.414062 -0.0585938 C 3.082031 0.0664062 2.726562 0.128906 2.347656 0.128906 C 1.71875 0.128906 1.238281 -0.0234375 0.902344 -0.332031 C 0.566406 -0.636719 0.398438 -1.027344 0.398438 -1.503906 C 0.398438 -1.78125 0.460938 -2.039062 0.589844 -2.269531 C 0.714844 -2.5 0.882812 -2.6875 1.085938 -2.824219 C 1.292969 -2.964844 1.523438 -3.070312 1.78125 -3.140625 C 1.972656 -3.191406 2.257812 -3.242188 2.640625 -3.289062 C 3.421875 -3.378906 3.996094 -3.492188 4.367188 -3.621094 C 4.371094 -3.753906 4.371094 -3.835938 4.371094 -3.871094 C 4.371094 -4.265625 4.28125 -4.542969 4.097656 -4.703125 C 3.851562 -4.921875 3.484375 -5.03125 2.996094 -5.03125 C 2.542969 -5.03125 2.207031 -4.953125 1.988281 -4.792969 C 1.773438 -4.632812 1.613281 -4.351562 1.507812 -3.949219 L 0.5625 -4.078125 C 0.648438 -4.480469 0.792969 -4.808594 0.988281 -5.058594 C 1.183594 -5.304688 1.46875 -5.496094 1.84375 -5.632812 C 2.214844 -5.765625 2.644531 -5.832031 3.136719 -5.832031 C 3.625 -5.832031 4.019531 -5.777344 4.324219 -5.660156 C 4.628906 -5.546875 4.851562 -5.402344 4.996094 -5.230469 C 5.136719 -5.054688 5.238281 -4.835938 5.296875 -4.570312 C 5.328125 -4.40625 5.34375 -4.109375 5.34375 -3.679688 L 5.34375 -2.390625 C 5.34375 -1.492188 5.363281 -0.921875 5.40625 -0.683594 C 5.445312 -0.445312 5.527344 -0.21875 5.648438 0 L 4.640625 0 C 4.539062 -0.199219 4.476562 -0.433594 4.445312 -0.703125 M 4.367188 -2.863281 C 4.015625 -2.71875 3.488281 -2.597656 2.789062 -2.496094 C 2.390625 -2.441406 2.109375 -2.375 1.945312 -2.304688 C 1.78125 -2.234375 1.652344 -2.128906 1.5625 -1.988281 C 1.472656 -1.851562 1.429688 -1.699219 1.429688 -1.53125 C 1.429688 -1.273438 1.527344 -1.058594 1.722656 -0.886719 C 1.917969 -0.714844 2.203125 -0.628906 2.578125 -0.628906 C 2.949219 -0.628906 3.28125 -0.710938 3.570312 -0.871094 C 3.863281 -1.035156 4.074219 -1.257812 4.210938 -1.542969 C 4.316406 -1.761719 4.367188 -2.082031 4.367188 -2.507812 Z M 4.367188 -2.863281 "/>
</g>
<g id="glyph-1-10">
<path d="M 0.714844 0 L 0.714844 -5.703125 L 1.585938 -5.703125 L 1.585938 -4.839844 C 1.804688 -5.242188 2.011719 -5.511719 2.199219 -5.640625 C 2.386719 -5.769531 2.59375 -5.832031 2.820312 -5.832031 C 3.144531 -5.832031 3.476562 -5.730469 3.8125 -5.523438 L 3.480469 -4.625 C 3.242188 -4.765625 3.007812 -4.832031 2.773438 -4.835938 C 2.558594 -4.832031 2.371094 -4.769531 2.203125 -4.644531 C 2.035156 -4.515625 1.914062 -4.339844 1.84375 -4.113281 C 1.734375 -3.769531 1.679688 -3.394531 1.679688 -2.984375 L 1.679688 0 Z M 0.714844 0 "/>
</g>
<g id="glyph-1-11">
<path d="M 4.445312 -2.089844 L 5.398438 -1.964844 C 5.292969 -1.3125 5.027344 -0.796875 4.601562 -0.425781 C 4.171875 -0.0546875 3.648438 0.128906 3.023438 0.128906 C 2.242188 0.128906 1.617188 -0.125 1.140625 -0.636719 C 0.667969 -1.148438 0.429688 -1.878906 0.429688 -2.832031 C 0.429688 -3.445312 0.53125 -3.984375 0.734375 -4.445312 C 0.941406 -4.910156 1.25 -5.253906 1.667969 -5.488281 C 2.085938 -5.71875 2.539062 -5.832031 3.03125 -5.832031 C 3.648438 -5.832031 4.15625 -5.675781 4.550781 -5.363281 C 4.941406 -5.050781 5.195312 -4.605469 5.304688 -4.027344 L 4.367188 -3.882812 C 4.277344 -4.265625 4.117188 -4.554688 3.890625 -4.75 C 3.664062 -4.941406 3.390625 -5.039062 3.066406 -5.039062 C 2.578125 -5.039062 2.183594 -4.863281 1.878906 -4.515625 C 1.574219 -4.164062 1.421875 -3.613281 1.421875 -2.859375 C 1.421875 -2.089844 1.570312 -1.535156 1.863281 -1.1875 C 2.15625 -0.839844 2.539062 -0.664062 3.011719 -0.664062 C 3.394531 -0.664062 3.710938 -0.78125 3.964844 -1.015625 C 4.21875 -1.246094 4.378906 -1.605469 4.445312 -2.089844 Z M 4.445312 -2.089844 "/>
</g>
<g id="glyph-1-12">
<path d="M 0.726562 0 L 0.726562 -7.875 L 1.691406 -7.875 L 1.691406 -5.046875 C 2.144531 -5.570312 2.710938 -5.832031 3.398438 -5.832031 C 3.824219 -5.832031 4.1875 -5.75 4.5 -5.582031 C 4.8125 -5.417969 5.035156 -5.1875 5.167969 -4.894531 C 5.304688 -4.597656 5.371094 -4.171875 5.371094 -3.613281 L 5.371094 0 L 4.40625 0 L 4.40625 -3.613281 C 4.40625 -4.097656 4.300781 -4.449219 4.089844 -4.671875 C 3.878906 -4.890625 3.585938 -5 3.203125 -5 C 2.914062 -5 2.644531 -4.925781 2.394531 -4.777344 C 2.140625 -4.628906 1.960938 -4.425781 1.851562 -4.171875 C 1.746094 -3.917969 1.691406 -3.566406 1.691406 -3.121094 L 1.691406 0 Z M 0.726562 0 "/>
</g>
<g id="glyph-1-13">
<path d="M 5.539062 -0.929688 L 5.539062 0 L 0.332031 0 C 0.324219 -0.234375 0.363281 -0.457031 0.445312 -0.671875 C 0.578125 -1.027344 0.789062 -1.375 1.082031 -1.71875 C 1.375 -2.0625 1.796875 -2.460938 2.347656 -2.910156 C 3.203125 -3.613281 3.78125 -4.167969 4.082031 -4.578125 C 4.382812 -4.988281 4.53125 -5.375 4.53125 -5.742188 C 4.53125 -6.125 4.394531 -6.449219 4.121094 -6.710938 C 3.847656 -6.972656 3.492188 -7.105469 3.050781 -7.105469 C 2.585938 -7.105469 2.210938 -6.964844 1.933594 -6.6875 C 1.65625 -6.40625 1.511719 -6.019531 1.507812 -5.527344 L 0.515625 -5.628906 C 0.582031 -6.371094 0.839844 -6.933594 1.285156 -7.324219 C 1.726562 -7.710938 2.324219 -7.90625 3.070312 -7.90625 C 3.828125 -7.90625 4.425781 -7.695312 4.867188 -7.277344 C 5.304688 -6.859375 5.527344 -6.339844 5.527344 -5.71875 C 5.527344 -5.40625 5.460938 -5.09375 5.332031 -4.789062 C 5.203125 -4.488281 4.992188 -4.167969 4.691406 -3.828125 C 4.394531 -3.492188 3.894531 -3.03125 3.203125 -2.445312 C 2.621094 -1.957031 2.25 -1.625 2.085938 -1.453125 C 1.917969 -1.277344 1.78125 -1.105469 1.675781 -0.929688 Z M 5.539062 -0.929688 "/>
</g>
<g id="glyph-1-14">
<path d="M 0.457031 -3.882812 C 0.457031 -4.8125 0.550781 -5.5625 0.742188 -6.132812 C 0.933594 -6.699219 1.21875 -7.136719 1.597656 -7.445312 C 1.976562 -7.753906 2.449219 -7.90625 3.023438 -7.90625 C 3.445312 -7.90625 3.816406 -7.820312 4.136719 -7.652344 C 4.453125 -7.480469 4.71875 -7.234375 4.925781 -6.914062 C 5.132812 -6.59375 5.296875 -6.203125 5.414062 -5.746094 C 5.53125 -5.285156 5.589844 -4.664062 5.589844 -3.882812 C 5.589844 -2.960938 5.496094 -2.214844 5.304688 -1.644531 C 5.117188 -1.078125 4.832031 -0.640625 4.457031 -0.332031 C 4.078125 -0.0195312 3.601562 0.132812 3.023438 0.132812 C 2.265625 0.132812 1.667969 -0.136719 1.234375 -0.683594 C 0.714844 -1.335938 0.457031 -2.40625 0.457031 -3.882812 M 1.449219 -3.882812 C 1.449219 -2.589844 1.601562 -1.730469 1.902344 -1.300781 C 2.207031 -0.875 2.578125 -0.660156 3.023438 -0.660156 C 3.46875 -0.660156 3.839844 -0.875 4.144531 -1.304688 C 4.445312 -1.734375 4.597656 -2.59375 4.597656 -3.882812 C 4.597656 -5.179688 4.445312 -6.039062 4.144531 -6.46875 C 3.839844 -6.894531 3.464844 -7.105469 3.011719 -7.105469 C 2.570312 -7.105469 2.214844 -6.917969 1.949219 -6.542969 C 1.617188 -6.0625 1.449219 -5.175781 1.449219 -3.882812 Z M 1.449219 -3.882812 "/>
</g>
<g id="glyph-1-15">
<path d="M 4.097656 0 L 3.132812 0 L 3.132812 -6.160156 C 2.898438 -5.9375 2.59375 -5.714844 2.214844 -5.496094 C 1.835938 -5.273438 1.5 -5.105469 1.199219 -4.996094 L 1.199219 -5.929688 C 1.738281 -6.183594 2.210938 -6.492188 2.617188 -6.851562 C 3.019531 -7.214844 3.308594 -7.566406 3.476562 -7.90625 L 4.097656 -7.90625 Z M 4.097656 0 "/>
</g>
<g id="glyph-1-16">
<path d="M 0.601562 -1.820312 L 1.53125 -1.90625 C 1.609375 -1.46875 1.761719 -1.152344 1.980469 -0.957031 C 2.203125 -0.757812 2.488281 -0.660156 2.835938 -0.660156 C 3.132812 -0.660156 3.394531 -0.730469 3.617188 -0.863281 C 3.839844 -1 4.023438 -1.183594 4.167969 -1.410156 C 4.3125 -1.636719 4.429688 -1.945312 4.527344 -2.332031 C 4.625 -2.71875 4.671875 -3.113281 4.671875 -3.511719 C 4.671875 -3.554688 4.671875 -3.621094 4.667969 -3.707031 C 4.472656 -3.398438 4.210938 -3.148438 3.875 -2.957031 C 3.539062 -2.765625 3.179688 -2.667969 2.789062 -2.667969 C 2.136719 -2.667969 1.585938 -2.90625 1.132812 -3.378906 C 0.683594 -3.851562 0.457031 -4.472656 0.457031 -5.246094 C 0.457031 -6.046875 0.691406 -6.6875 1.164062 -7.175781 C 1.632812 -7.664062 2.222656 -7.90625 2.933594 -7.90625 C 3.445312 -7.90625 3.914062 -7.769531 4.335938 -7.492188 C 4.761719 -7.21875 5.082031 -6.824219 5.304688 -6.3125 C 5.523438 -5.804688 5.632812 -5.066406 5.632812 -4.097656 C 5.632812 -3.09375 5.523438 -2.289062 5.304688 -1.695312 C 5.089844 -1.097656 4.761719 -0.644531 4.332031 -0.332031 C 3.898438 -0.0234375 3.394531 0.132812 2.8125 0.132812 C 2.199219 0.132812 1.695312 -0.0351562 1.304688 -0.378906 C 0.914062 -0.71875 0.679688 -1.203125 0.601562 -1.820312 M 4.558594 -5.296875 C 4.558594 -5.851562 4.414062 -6.292969 4.117188 -6.617188 C 3.820312 -6.941406 3.464844 -7.105469 3.050781 -7.105469 C 2.621094 -7.105469 2.246094 -6.929688 1.929688 -6.578125 C 1.609375 -6.230469 1.449219 -5.773438 1.449219 -5.214844 C 1.449219 -4.714844 1.601562 -4.308594 1.902344 -3.992188 C 2.207031 -3.679688 2.578125 -3.523438 3.023438 -3.523438 C 3.472656 -3.523438 3.839844 -3.679688 4.128906 -3.992188 C 4.414062 -4.308594 4.558594 -4.742188 4.558594 -5.296875 Z M 4.558594 -5.296875 "/>
</g>
<g id="glyph-2-0">
<path d="M 0.933594 0 L 0.933594 -9.449219 L 3.789062 -9.449219 L 5.503906 -3.003906 L 7.199219 -9.449219 L 10.0625 -9.449219 L 10.0625 0 L 8.289062 0 L 8.289062 -7.4375 L 6.414062 0 L 4.578125 0 L 2.707031 -7.4375 L 2.707031 0 Z M 0.933594 0 "/>
</g>
<g id="glyph-2-1">
<path d="M 2.300781 -4.757812 L 0.65625 -5.054688 C 0.84375 -5.714844 1.160156 -6.203125 1.609375 -6.523438 C 2.0625 -6.839844 2.734375 -7 3.621094 -7 C 4.429688 -7 5.03125 -6.902344 5.425781 -6.710938 C 5.820312 -6.523438 6.101562 -6.277344 6.261719 -5.984375 C 6.421875 -5.691406 6.503906 -5.148438 6.503906 -4.363281 L 6.484375 -2.25 C 6.484375 -1.648438 6.511719 -1.203125 6.570312 -0.917969 C 6.628906 -0.632812 6.738281 -0.328125 6.898438 0 L 5.105469 0 C 5.058594 -0.121094 5 -0.296875 4.929688 -0.535156 C 4.902344 -0.640625 4.878906 -0.714844 4.867188 -0.746094 C 4.558594 -0.445312 4.226562 -0.222656 3.875 -0.0703125 C 3.519531 0.078125 3.144531 0.15625 2.746094 0.15625 C 2.039062 0.15625 1.484375 -0.0351562 1.078125 -0.417969 C 0.671875 -0.800781 0.46875 -1.285156 0.46875 -1.867188 C 0.46875 -2.257812 0.5625 -2.601562 0.746094 -2.902344 C 0.933594 -3.207031 1.191406 -3.4375 1.523438 -3.601562 C 1.855469 -3.761719 2.335938 -3.902344 2.964844 -4.023438 C 3.8125 -4.179688 4.398438 -4.328125 4.722656 -4.464844 L 4.722656 -4.648438 C 4.722656 -4.996094 4.636719 -5.242188 4.464844 -5.390625 C 4.292969 -5.539062 3.96875 -5.613281 3.492188 -5.613281 C 3.171875 -5.613281 2.917969 -5.550781 2.738281 -5.421875 C 2.558594 -5.296875 2.414062 -5.074219 2.300781 -4.757812 M 4.722656 -3.289062 C 4.492188 -3.210938 4.125 -3.117188 3.621094 -3.011719 C 3.121094 -2.902344 2.789062 -2.796875 2.636719 -2.695312 C 2.398438 -2.527344 2.28125 -2.3125 2.28125 -2.054688 C 2.28125 -1.800781 2.375 -1.582031 2.566406 -1.398438 C 2.753906 -1.214844 2.996094 -1.121094 3.289062 -1.121094 C 3.613281 -1.121094 3.925781 -1.230469 4.222656 -1.445312 C 4.441406 -1.605469 4.585938 -1.808594 4.652344 -2.042969 C 4.699219 -2.199219 4.722656 -2.492188 4.722656 -2.925781 Z M 4.722656 -3.289062 "/>
</g>
<g id="glyph-2-2">
<path d="M 0.910156 -7.773438 L 0.910156 -9.449219 L 2.71875 -9.449219 L 2.71875 -7.773438 L 0.910156 -7.773438 M 2.71875 -6.84375 L 2.71875 -0.210938 C 2.71875 0.660156 2.664062 1.273438 2.550781 1.632812 C 2.433594 1.992188 2.214844 2.273438 1.890625 2.476562 C 1.566406 2.675781 1.152344 2.777344 0.652344 2.777344 C 0.46875 2.777344 0.277344 2.761719 0.0664062 2.730469 C -0.140625 2.699219 -0.363281 2.648438 -0.605469 2.585938 L -0.289062 1.039062 C -0.203125 1.054688 -0.125 1.070312 -0.046875 1.078125 C 0.0273438 1.089844 0.0976562 1.09375 0.160156 1.09375 C 0.347656 1.09375 0.496094 1.054688 0.617188 0.976562 C 0.734375 0.898438 0.8125 0.800781 0.851562 0.691406 C 0.890625 0.578125 0.910156 0.242188 0.910156 -0.316406 L 0.910156 -6.84375 Z M 2.71875 -6.84375 "/>
</g>
<g id="glyph-2-3">
<path d="M 0.527344 -3.519531 C 0.527344 -4.121094 0.675781 -4.703125 0.972656 -5.265625 C 1.269531 -5.828125 1.691406 -6.257812 2.234375 -6.554688 C 2.777344 -6.851562 3.382812 -7 4.054688 -7 C 5.089844 -7 5.9375 -6.664062 6.601562 -5.992188 C 7.261719 -5.320312 7.59375 -4.46875 7.59375 -3.441406 C 7.59375 -2.40625 7.257812 -1.546875 6.589844 -0.867188 C 5.921875 -0.1875 5.082031 0.15625 4.066406 0.15625 C 3.441406 0.15625 2.839844 0.0117188 2.273438 -0.269531 C 1.703125 -0.554688 1.269531 -0.96875 0.972656 -1.519531 C 0.675781 -2.066406 0.527344 -2.734375 0.527344 -3.519531 M 2.382812 -3.421875 C 2.382812 -2.742188 2.546875 -2.222656 2.867188 -1.863281 C 3.191406 -1.5 3.585938 -1.320312 4.0625 -1.320312 C 4.53125 -1.320312 4.929688 -1.5 5.25 -1.863281 C 5.570312 -2.222656 5.730469 -2.746094 5.730469 -3.433594 C 5.730469 -4.105469 5.570312 -4.621094 5.25 -4.980469 C 4.929688 -5.34375 4.53125 -5.523438 4.0625 -5.523438 C 3.585938 -5.523438 3.191406 -5.34375 2.867188 -4.980469 C 2.546875 -4.621094 2.382812 -4.101562 2.382812 -3.421875 Z M 2.382812 -3.421875 "/>
</g>
<g id="glyph-2-4">
<path d="M 2.679688 0 L 0.871094 0 L 0.871094 -6.84375 L 2.550781 -6.84375 L 2.550781 -5.871094 C 2.839844 -6.332031 3.097656 -6.632812 3.328125 -6.78125 C 3.558594 -6.925781 3.820312 -7 4.113281 -7 C 4.523438 -7 4.921875 -6.886719 5.304688 -6.65625 L 4.742188 -5.078125 C 4.4375 -5.277344 4.15625 -5.375 3.894531 -5.375 C 3.640625 -5.375 3.425781 -5.304688 3.25 -5.164062 C 3.070312 -5.027344 2.933594 -4.773438 2.832031 -4.410156 C 2.730469 -4.042969 2.679688 -3.277344 2.679688 -2.113281 Z M 2.679688 0 "/>
</g>
<g id="glyph-2-5">
</g>
<g id="glyph-2-6">
<path d="M 9.480469 0 L 7.40625 0 L 6.582031 -2.144531 L 2.804688 -2.144531 L 2.023438 0 L 0 0 L 3.679688 -9.449219 L 5.699219 -9.449219 L 9.480469 0 M 5.96875 -3.738281 L 4.667969 -7.246094 L 3.390625 -3.738281 Z M 5.96875 -3.738281 "/>
</g>
<g id="glyph-2-7">
<path d="M 5.453125 0 L 5.453125 -1.023438 C 5.203125 -0.660156 4.875 -0.371094 4.46875 -0.160156 C 4.0625 0.0507812 3.636719 0.15625 3.183594 0.15625 C 2.722656 0.15625 2.3125 0.0546875 1.945312 -0.148438 C 1.582031 -0.351562 1.316406 -0.632812 1.152344 -1 C 0.992188 -1.363281 0.910156 -1.867188 0.910156 -2.515625 L 0.910156 -6.84375 L 2.71875 -6.84375 L 2.71875 -3.699219 C 2.71875 -2.738281 2.753906 -2.148438 2.820312 -1.929688 C 2.886719 -1.714844 3.007812 -1.542969 3.183594 -1.414062 C 3.359375 -1.289062 3.582031 -1.226562 3.855469 -1.226562 C 4.164062 -1.226562 4.441406 -1.308594 4.6875 -1.480469 C 4.929688 -1.648438 5.097656 -1.859375 5.1875 -2.109375 C 5.277344 -2.363281 5.324219 -2.976562 5.324219 -3.957031 L 5.324219 -6.84375 L 7.136719 -6.84375 L 7.136719 0 Z M 5.453125 0 "/>
</g>
<g id="glyph-2-8">
<path d="M 0.308594 -1.953125 L 2.125 -2.230469 C 2.203125 -1.878906 2.359375 -1.609375 2.597656 -1.425781 C 2.832031 -1.246094 3.164062 -1.152344 3.589844 -1.152344 C 4.058594 -1.152344 4.410156 -1.238281 4.648438 -1.410156 C 4.804688 -1.53125 4.886719 -1.691406 4.886719 -1.894531 C 4.886719 -2.03125 4.84375 -2.144531 4.757812 -2.238281 C 4.667969 -2.324219 4.464844 -2.402344 4.152344 -2.476562 C 2.691406 -2.796875 1.765625 -3.089844 1.371094 -3.359375 C 0.832031 -3.726562 0.5625 -4.242188 0.5625 -4.898438 C 0.5625 -5.492188 0.792969 -5.988281 1.261719 -6.394531 C 1.730469 -6.796875 2.457031 -7 3.441406 -7 C 4.378906 -7 5.074219 -6.847656 5.53125 -6.542969 C 5.984375 -6.238281 6.300781 -5.785156 6.472656 -5.1875 L 4.761719 -4.871094 C 4.691406 -5.140625 4.550781 -5.34375 4.347656 -5.484375 C 4.144531 -5.625 3.851562 -5.699219 3.472656 -5.699219 C 2.996094 -5.699219 2.65625 -5.632812 2.449219 -5.496094 C 2.3125 -5.402344 2.242188 -5.28125 2.242188 -5.128906 C 2.242188 -5 2.304688 -4.890625 2.421875 -4.800781 C 2.585938 -4.679688 3.152344 -4.511719 4.117188 -4.292969 C 5.078125 -4.074219 5.753906 -3.804688 6.136719 -3.488281 C 6.515625 -3.164062 6.703125 -2.714844 6.703125 -2.140625 C 6.703125 -1.511719 6.441406 -0.972656 5.917969 -0.523438 C 5.390625 -0.0703125 4.617188 0.15625 3.589844 0.15625 C 2.65625 0.15625 1.917969 -0.0351562 1.375 -0.414062 C 0.832031 -0.789062 0.476562 -1.304688 0.308594 -1.953125 Z M 0.308594 -1.953125 "/>
</g>
<g id="glyph-2-9">
<path d="M 4.085938 -6.84375 L 4.085938 -5.402344 L 2.847656 -5.402344 L 2.847656 -2.640625 C 2.847656 -2.082031 2.859375 -1.757812 2.882812 -1.667969 C 2.90625 -1.574219 2.960938 -1.496094 3.046875 -1.4375 C 3.128906 -1.378906 3.230469 -1.347656 3.351562 -1.347656 C 3.519531 -1.347656 3.761719 -1.40625 4.078125 -1.519531 L 4.234375 -0.117188 C 3.8125 0.0625 3.335938 0.15625 2.804688 0.15625 C 2.476562 0.15625 2.183594 0.101562 1.921875 -0.0078125 C 1.660156 -0.121094 1.464844 -0.261719 1.34375 -0.433594 C 1.222656 -0.609375 1.136719 -0.84375 1.089844 -1.140625 C 1.050781 -1.351562 1.03125 -1.777344 1.03125 -2.417969 L 1.03125 -5.402344 L 0.199219 -5.402344 L 0.199219 -6.84375 L 1.03125 -6.84375 L 1.03125 -8.203125 L 2.847656 -9.261719 L 2.847656 -6.84375 Z M 4.085938 -6.84375 "/>
</g>
<g id="glyph-2-10">
<path d="M 0.949219 0 L 0.949219 -9.449219 L 2.757812 -9.449219 L 2.757812 0 Z M 0.949219 0 "/>
</g>
<g id="glyph-2-11">
<path d="M 0.949219 -7.773438 L 0.949219 -9.449219 L 2.757812 -9.449219 L 2.757812 -7.773438 L 0.949219 -7.773438 M 0.949219 0 L 0.949219 -6.84375 L 2.757812 -6.84375 L 2.757812 0 Z M 0.949219 0 "/>
</g>
<g id="glyph-2-12">
<path d="M 7.171875 0 L 5.363281 0 L 5.363281 -3.492188 C 5.363281 -4.230469 5.324219 -4.710938 5.246094 -4.925781 C 5.167969 -5.144531 5.042969 -5.3125 4.871094 -5.433594 C 4.695312 -5.554688 4.484375 -5.613281 4.242188 -5.613281 C 3.925781 -5.613281 3.644531 -5.527344 3.398438 -5.355469 C 3.148438 -5.183594 2.976562 -4.957031 2.882812 -4.671875 C 2.792969 -4.390625 2.746094 -3.863281 2.746094 -3.101562 L 2.746094 0 L 0.933594 0 L 0.933594 -6.84375 L 2.617188 -6.84375 L 2.617188 -5.839844 C 3.214844 -6.613281 3.964844 -7 4.871094 -7 C 5.273438 -7 5.636719 -6.925781 5.96875 -6.785156 C 6.300781 -6.640625 6.550781 -6.457031 6.71875 -6.234375 C 6.890625 -6.007812 7.007812 -5.753906 7.074219 -5.472656 C 7.140625 -5.1875 7.171875 -4.78125 7.171875 -4.253906 Z M 7.171875 0 "/>
</g>
<g id="glyph-2-13">
<path d="M 0.96875 -9.449219 L 4.742188 -9.449219 C 5.492188 -9.449219 6.050781 -9.417969 6.417969 -9.355469 C 6.785156 -9.292969 7.113281 -9.164062 7.402344 -8.964844 C 7.691406 -8.769531 7.933594 -8.503906 8.128906 -8.175781 C 8.320312 -7.847656 8.417969 -7.480469 8.417969 -7.070312 C 8.417969 -6.628906 8.296875 -6.222656 8.058594 -5.851562 C 7.820312 -5.484375 7.496094 -5.207031 7.089844 -5.019531 C 7.664062 -4.851562 8.109375 -4.566406 8.417969 -4.164062 C 8.726562 -3.757812 8.882812 -3.285156 8.882812 -2.738281 C 8.882812 -2.308594 8.78125 -1.890625 8.582031 -1.484375 C 8.382812 -1.078125 8.109375 -0.753906 7.761719 -0.511719 C 7.417969 -0.269531 6.992188 -0.121094 6.484375 -0.0625 C 6.164062 -0.03125 5.398438 -0.0078125 4.183594 0 L 0.96875 0 L 0.96875 -9.449219 M 2.875 -7.875 L 2.875 -5.691406 L 4.125 -5.691406 C 4.867188 -5.691406 5.332031 -5.703125 5.511719 -5.722656 C 5.835938 -5.761719 6.09375 -5.875 6.28125 -6.0625 C 6.46875 -6.25 6.5625 -6.496094 6.5625 -6.800781 C 6.5625 -7.09375 6.480469 -7.328125 6.320312 -7.511719 C 6.160156 -7.695312 5.917969 -7.804688 5.601562 -7.84375 C 5.410156 -7.867188 4.867188 -7.875 3.96875 -7.875 L 2.875 -7.875 M 2.875 -4.117188 L 2.875 -1.59375 L 4.640625 -1.59375 C 5.328125 -1.59375 5.765625 -1.609375 5.949219 -1.648438 C 6.234375 -1.703125 6.464844 -1.828125 6.640625 -2.027344 C 6.820312 -2.226562 6.910156 -2.496094 6.910156 -2.828125 C 6.910156 -3.113281 6.839844 -3.355469 6.703125 -3.550781 C 6.566406 -3.75 6.367188 -3.894531 6.105469 -3.984375 C 5.847656 -4.074219 5.28125 -4.117188 4.414062 -4.117188 Z M 2.875 -4.117188 "/>
</g>
<g id="glyph-2-14">
<path d="M 0.882812 0 L 0.882812 -9.449219 L 2.695312 -9.449219 L 2.695312 -4.433594 L 4.816406 -6.84375 L 7.042969 -6.84375 L 4.703125 -4.34375 L 7.210938 0 L 5.257812 0 L 3.539062 -3.074219 L 2.695312 -2.191406 L 2.695312 0 Z M 0.882812 0 "/>
</g>
<g id="glyph-2-15">
<path d="M 0.933594 -6.089844 L 0.59375 -7.851562 L 0.59375 -9.449219 L 2.566406 -9.449219 L 2.566406 -7.851562 L 2.269531 -6.089844 Z M 0.933594 -6.089844 "/>
</g>
<g id="glyph-2-16">
<path d="M 3.085938 0 L 3.085938 -7.851562 L 0.285156 -7.851562 L 0.285156 -9.449219 L 7.792969 -9.449219 L 7.792969 -7.851562 L 4.996094 -7.851562 L 4.996094 0 Z M 3.085938 0 "/>
</g>
<g id="glyph-2-17">
<path d="M 0.96875 0 L 0.96875 -9.449219 L 4.980469 -9.449219 C 5.992188 -9.449219 6.726562 -9.363281 7.183594 -9.195312 C 7.640625 -9.023438 8.007812 -8.722656 8.28125 -8.289062 C 8.558594 -7.855469 8.695312 -7.359375 8.695312 -6.800781 C 8.695312 -6.089844 8.484375 -5.503906 8.070312 -5.042969 C 7.652344 -4.582031 7.03125 -4.289062 6.199219 -4.171875 C 6.613281 -3.929688 6.953125 -3.664062 7.222656 -3.378906 C 7.492188 -3.089844 7.851562 -2.578125 8.308594 -1.84375 L 9.460938 0 L 7.179688 0 L 5.800781 -2.054688 C 5.3125 -2.789062 4.976562 -3.253906 4.796875 -3.445312 C 4.613281 -3.636719 4.421875 -3.765625 4.222656 -3.839844 C 4.019531 -3.910156 3.699219 -3.945312 3.261719 -3.945312 L 2.875 -3.945312 L 2.875 0 L 0.96875 0 M 2.875 -5.453125 L 4.285156 -5.453125 C 5.203125 -5.453125 5.773438 -5.492188 6 -5.570312 C 6.226562 -5.644531 6.40625 -5.777344 6.535156 -5.96875 C 6.664062 -6.15625 6.730469 -6.394531 6.730469 -6.675781 C 6.730469 -6.996094 6.644531 -7.253906 6.472656 -7.449219 C 6.304688 -7.644531 6.066406 -7.765625 5.753906 -7.816406 C 5.601562 -7.839844 5.136719 -7.851562 4.363281 -7.851562 L 2.875 -7.851562 Z M 2.875 -5.453125 "/>
</g>
<g id="glyph-2-18">
<path d="M 4.910156 -2.179688 L 6.714844 -1.875 C 6.484375 -1.214844 6.117188 -0.710938 5.617188 -0.363281 C 5.117188 -0.0195312 4.488281 0.15625 3.738281 0.15625 C 2.546875 0.15625 1.667969 -0.234375 1.09375 -1.011719 C 0.644531 -1.636719 0.417969 -2.421875 0.417969 -3.371094 C 0.417969 -4.503906 0.714844 -5.394531 1.308594 -6.035156 C 1.902344 -6.679688 2.652344 -7 3.558594 -7 C 4.574219 -7 5.378906 -6.664062 5.96875 -5.992188 C 6.558594 -5.320312 6.839844 -4.289062 6.8125 -2.898438 L 2.273438 -2.898438 C 2.289062 -2.363281 2.433594 -1.945312 2.714844 -1.648438 C 2.992188 -1.347656 3.339844 -1.199219 3.757812 -1.199219 C 4.042969 -1.199219 4.28125 -1.277344 4.472656 -1.429688 C 4.667969 -1.585938 4.8125 -1.835938 4.910156 -2.179688 M 5.015625 -4.007812 C 5 -4.53125 4.867188 -4.933594 4.609375 -5.203125 C 4.351562 -5.476562 4.035156 -5.613281 3.667969 -5.613281 C 3.273438 -5.613281 2.945312 -5.46875 2.6875 -5.183594 C 2.429688 -4.894531 2.304688 -4.503906 2.308594 -4.007812 Z M 5.015625 -4.007812 "/>
</g>
<g id="glyph-2-19">
<path d="M 7.226562 0 L 5.542969 0 L 5.542969 -1.003906 C 5.261719 -0.613281 4.933594 -0.324219 4.554688 -0.132812 C 4.171875 0.0585938 3.789062 0.15625 3.402344 0.15625 C 2.617188 0.15625 1.941406 -0.164062 1.382812 -0.796875 C 0.820312 -1.429688 0.542969 -2.3125 0.542969 -3.449219 C 0.542969 -4.609375 0.8125 -5.492188 1.359375 -6.09375 C 1.90625 -6.699219 2.59375 -7 3.429688 -7 C 4.195312 -7 4.855469 -6.679688 5.414062 -6.046875 L 5.414062 -9.449219 L 7.226562 -9.449219 L 7.226562 0 M 2.390625 -3.570312 C 2.390625 -2.839844 2.492188 -2.3125 2.695312 -1.984375 C 2.984375 -1.511719 3.394531 -1.277344 3.917969 -1.277344 C 4.335938 -1.277344 4.691406 -1.453125 4.980469 -1.808594 C 5.273438 -2.164062 5.421875 -2.691406 5.421875 -3.398438 C 5.421875 -4.183594 5.277344 -4.75 4.996094 -5.09375 C 4.710938 -5.441406 4.347656 -5.613281 3.90625 -5.613281 C 3.476562 -5.613281 3.117188 -5.441406 2.828125 -5.101562 C 2.535156 -4.761719 2.390625 -4.25 2.390625 -3.570312 Z M 2.390625 -3.570312 "/>
</g>
<g id="glyph-2-20">
<path d="M 1.011719 0 L 1.011719 -9.371094 L 2.917969 -9.371094 L 2.917969 -1.59375 L 7.664062 -1.59375 L 7.664062 0 Z M 1.011719 0 "/>
</g>
<g id="glyph-2-21">
<path d="M 0.972656 0 L 0.972656 -9.449219 L 7.449219 -9.449219 L 7.449219 -7.851562 L 2.882812 -7.851562 L 2.882812 -5.613281 L 6.824219 -5.613281 L 6.824219 -4.015625 L 2.882812 -4.015625 L 2.882812 0 Z M 0.972656 0 "/>
</g>
<g id="glyph-2-22">
<path d="M 6.914062 -4.820312 L 5.128906 -4.5 C 5.070312 -4.855469 4.933594 -5.125 4.722656 -5.304688 C 4.507812 -5.484375 4.230469 -5.574219 3.894531 -5.574219 C 3.441406 -5.574219 3.082031 -5.417969 2.8125 -5.109375 C 2.542969 -4.796875 2.410156 -4.273438 2.410156 -3.546875 C 2.410156 -2.734375 2.546875 -2.160156 2.820312 -1.824219 C 3.09375 -1.488281 3.457031 -1.320312 3.917969 -1.320312 C 4.261719 -1.320312 4.542969 -1.417969 4.761719 -1.613281 C 4.980469 -1.808594 5.136719 -2.144531 5.226562 -2.625 L 7.007812 -2.320312 C 6.820312 -1.503906 6.464844 -0.886719 5.941406 -0.46875 C 5.417969 -0.0546875 4.714844 0.15625 3.835938 0.15625 C 2.832031 0.15625 2.035156 -0.160156 1.441406 -0.792969 C 0.84375 -1.425781 0.546875 -2.296875 0.546875 -3.414062 C 0.546875 -4.546875 0.847656 -5.425781 1.445312 -6.054688 C 2.039062 -6.683594 2.847656 -7 3.867188 -7 C 4.699219 -7 5.363281 -6.820312 5.855469 -6.460938 C 6.347656 -6.101562 6.699219 -5.554688 6.914062 -4.820312 Z M 6.914062 -4.820312 "/>
</g>
</g>
<clipPath id="clip-0">
<path clip-rule="nonzero" d="M 25.09375 82.050781 L 498.519531 82.050781 L 498.519531 323.804688 L 25.09375 323.804688 Z M 25.09375 82.050781 "/>
</clipPath>
<clipPath id="clip-1">
<path clip-rule="nonzero" d="M 25.09375 283 L 498.519531 283 L 498.519531 284 L 25.09375 284 Z M 25.09375 283 "/>
</clipPath>
<clipPath id="clip-2">
<path clip-rule="nonzero" d="M 25.09375 237 L 498.519531 237 L 498.519531 238 L 25.09375 238 Z M 25.09375 237 "/>
</clipPath>
<clipPath id="clip-3">
<path clip-rule="nonzero" d="M 25.09375 191 L 498.519531 191 L 498.519531 193 L 25.09375 193 Z M 25.09375 191 "/>
</clipPath>
<clipPath id="clip-4">
<path clip-rule="nonzero" d="M 25.09375 145 L 498.519531 145 L 498.519531 147 L 25.09375 147 Z M 25.09375 145 "/>
</clipPath>
<clipPath id="clip-5">
<path clip-rule="nonzero" d="M 25.09375 100 L 498.519531 100 L 498.519531 101 L 25.09375 101 Z M 25.09375 100 "/>
</clipPath>
<clipPath id="clip-6">
<path clip-rule="nonzero" d="M 31 82.050781 L 32 82.050781 L 32 323.804688 L 31 323.804688 Z M 31 82.050781 "/>
</clipPath>
<clipPath id="clip-7">
<path clip-rule="nonzero" d="M 154 82.050781 L 155 82.050781 L 155 323.804688 L 154 323.804688 Z M 154 82.050781 "/>
</clipPath>
<clipPath id="clip-8">
<path clip-rule="nonzero" d="M 277 82.050781 L 278 82.050781 L 278 323.804688 L 277 323.804688 Z M 277 82.050781 "/>
</clipPath>
<clipPath id="clip-9">
<path clip-rule="nonzero" d="M 400 82.050781 L 401 82.050781 L 401 323.804688 L 400 323.804688 Z M 400 82.050781 "/>
</clipPath>
<clipPath id="clip-10">
<path clip-rule="nonzero" d="M 25.09375 305 L 498.519531 305 L 498.519531 307 L 25.09375 307 Z M 25.09375 305 "/>
</clipPath>
<clipPath id="clip-11">
<path clip-rule="nonzero" d="M 25.09375 259 L 498.519531 259 L 498.519531 262 L 25.09375 262 Z M 25.09375 259 "/>
</clipPath>
<clipPath id="clip-12">
<path clip-rule="nonzero" d="M 25.09375 214 L 498.519531 214 L 498.519531 216 L 25.09375 216 Z M 25.09375 214 "/>
</clipPath>
<clipPath id="clip-13">
<path clip-rule="nonzero" d="M 25.09375 168 L 498.519531 168 L 498.519531 170 L 25.09375 170 Z M 25.09375 168 "/>
</clipPath>
<clipPath id="clip-14">
<path clip-rule="nonzero" d="M 25.09375 122 L 498.519531 122 L 498.519531 124 L 25.09375 124 Z M 25.09375 122 "/>
</clipPath>
<clipPath id="clip-15">
<path clip-rule="nonzero" d="M 92 82.050781 L 94 82.050781 L 94 323.804688 L 92 323.804688 Z M 92 82.050781 "/>
</clipPath>
<clipPath id="clip-16">
<path clip-rule="nonzero" d="M 215 82.050781 L 217 82.050781 L 217 323.804688 L 215 323.804688 Z M 215 82.050781 "/>
</clipPath>
<clipPath id="clip-17">
<path clip-rule="nonzero" d="M 338 82.050781 L 340 82.050781 L 340 323.804688 L 338 323.804688 Z M 338 82.050781 "/>
</clipPath>
<clipPath id="clip-18">
<path clip-rule="nonzero" d="M 461 82.050781 L 463 82.050781 L 463 323.804688 L 461 323.804688 Z M 461 82.050781 "/>
</clipPath>
<clipPath id="clip-19">
<path clip-rule="nonzero" d="M 25.09375 82.050781 L 498.519531 82.050781 L 498.519531 323.804688 L 25.09375 323.804688 Z M 25.09375 82.050781 "/>
</clipPath>
</defs>
<rect x="-50.4" y="-36" width="604.8" height="432" fill="rgb(100%, 100%, 100%)" fill-opacity="1"/>
<rect x="-50.4" y="-36" width="604.8" height="432" fill="rgb(100%, 100%, 100%)" fill-opacity="1"/>
<path fill="none" stroke-width="1.066978" stroke-linecap="round" stroke-linejoin="round" stroke="rgb(100%, 100%, 100%)" stroke-opacity="1" stroke-miterlimit="10" d="M 0 360 L 504 360 L 504 0 L 0 0 Z M 0 360 "/>
<g clip-path="url(#clip-0)">
<path fill-rule="nonzero" fill="rgb(100%, 100%, 100%)" fill-opacity="1" d="M 25.09375 323.808594 L 498.519531 323.808594 L 498.519531 82.054688 L 25.09375 82.054688 Z M 25.09375 323.808594 "/>
</g>
<g clip-path="url(#clip-1)">
<path fill="none" stroke-width="0.533489" stroke-linecap="butt" stroke-linejoin="round" stroke="rgb(92.156863%, 92.156863%, 92.156863%)" stroke-opacity="1" stroke-miterlimit="10" d="M 25.09375 283.355469 L 498.519531 283.355469 "/>
</g>
<g clip-path="url(#clip-2)">
<path fill="none" stroke-width="0.533489" stroke-linecap="butt" stroke-linejoin="round" stroke="rgb(92.156863%, 92.156863%, 92.156863%)" stroke-opacity="1" stroke-miterlimit="10" d="M 25.09375 237.625 L 498.519531 237.625 "/>
</g>
<g clip-path="url(#clip-3)">
<path fill="none" stroke-width="0.533489" stroke-linecap="butt" stroke-linejoin="round" stroke="rgb(92.156863%, 92.156863%, 92.156863%)" stroke-opacity="1" stroke-miterlimit="10" d="M 25.09375 191.894531 L 498.519531 191.894531 "/>
</g>
<g clip-path="url(#clip-4)">
<path fill="none" stroke-width="0.533489" stroke-linecap="butt" stroke-linejoin="round" stroke="rgb(92.156863%, 92.156863%, 92.156863%)" stroke-opacity="1" stroke-miterlimit="10" d="M 25.09375 146.160156 L 498.519531 146.160156 "/>
</g>
<g clip-path="url(#clip-5)">
<path fill="none" stroke-width="0.533489" stroke-linecap="butt" stroke-linejoin="round" stroke="rgb(92.156863%, 92.156863%, 92.156863%)" stroke-opacity="1" stroke-miterlimit="10" d="M 25.09375 100.429688 L 498.519531 100.429688 "/>
</g>
<g clip-path="url(#clip-6)">
<path fill="none" stroke-width="0.533489" stroke-linecap="butt" stroke-linejoin="round" stroke="rgb(92.156863%, 92.156863%, 92.156863%)" stroke-opacity="1" stroke-miterlimit="10" d="M 31.632812 323.808594 L 31.632812 82.050781 "/>
</g>
<g clip-path="url(#clip-7)">
<path fill="none" stroke-width="0.533489" stroke-linecap="butt" stroke-linejoin="round" stroke="rgb(92.156863%, 92.156863%, 92.156863%)" stroke-opacity="1" stroke-miterlimit="10" d="M 154.589844 323.808594 L 154.589844 82.050781 "/>
</g>
<g clip-path="url(#clip-8)">
<path fill="none" stroke-width="0.533489" stroke-linecap="butt" stroke-linejoin="round" stroke="rgb(92.156863%, 92.156863%, 92.156863%)" stroke-opacity="1" stroke-miterlimit="10" d="M 277.542969 323.808594 L 277.542969 82.050781 "/>
</g>
<g clip-path="url(#clip-9)">
<path fill="none" stroke-width="0.533489" stroke-linecap="butt" stroke-linejoin="round" stroke="rgb(92.156863%, 92.156863%, 92.156863%)" stroke-opacity="1" stroke-miterlimit="10" d="M 400.5 323.808594 L 400.5 82.050781 "/>
</g>
<g clip-path="url(#clip-10)">
<path fill="none" stroke-width="1.066978" stroke-linecap="butt" stroke-linejoin="round" stroke="rgb(92.156863%, 92.156863%, 92.156863%)" stroke-opacity="1" stroke-miterlimit="10" d="M 25.09375 306.21875 L 498.519531 306.21875 "/>
</g>
<g clip-path="url(#clip-11)">
<path fill="none" stroke-width="1.066978" stroke-linecap="butt" stroke-linejoin="round" stroke="rgb(92.156863%, 92.156863%, 92.156863%)" stroke-opacity="1" stroke-miterlimit="10" d="M 25.09375 260.488281 L 498.519531 260.488281 "/>
</g>
<g clip-path="url(#clip-12)">
<path fill="none" stroke-width="1.066978" stroke-linecap="butt" stroke-linejoin="round" stroke="rgb(92.156863%, 92.156863%, 92.156863%)" stroke-opacity="1" stroke-miterlimit="10" d="M 25.09375 214.757812 L 498.519531 214.757812 "/>
</g>
<g clip-path="url(#clip-13)">
<path fill="none" stroke-width="1.066978" stroke-linecap="butt" stroke-linejoin="round" stroke="rgb(92.156863%, 92.156863%, 92.156863%)" stroke-opacity="1" stroke-miterlimit="10" d="M 25.09375 169.027344 L 498.519531 169.027344 "/>
</g>
<g clip-path="url(#clip-14)">
<path fill="none" stroke-width="1.066978" stroke-linecap="butt" stroke-linejoin="round" stroke="rgb(92.156863%, 92.156863%, 92.156863%)" stroke-opacity="1" stroke-miterlimit="10" d="M 25.09375 123.296875 L 498.519531 123.296875 "/>
</g>
<g clip-path="url(#clip-15)">
<path fill="none" stroke-width="1.066978" stroke-linecap="butt" stroke-linejoin="round" stroke="rgb(92.156863%, 92.156863%, 92.156863%)" stroke-opacity="1" stroke-miterlimit="10" d="M 93.070312 323.808594 L 93.070312 82.050781 "/>
</g>
<g clip-path="url(#clip-16)">
<path fill="none" stroke-width="1.066978" stroke-linecap="butt" stroke-linejoin="round" stroke="rgb(92.156863%, 92.156863%, 92.156863%)" stroke-opacity="1" stroke-miterlimit="10" d="M 216.109375 323.808594 L 216.109375 82.050781 "/>
</g>
<g clip-path="url(#clip-17)">
<path fill="none" stroke-width="1.066978" stroke-linecap="butt" stroke-linejoin="round" stroke="rgb(92.156863%, 92.156863%, 92.156863%)" stroke-opacity="1" stroke-miterlimit="10" d="M 338.980469 323.808594 L 338.980469 82.050781 "/>
</g>
<g clip-path="url(#clip-18)">
<path fill="none" stroke-width="1.066978" stroke-linecap="butt" stroke-linejoin="round" stroke="rgb(92.156863%, 92.156863%, 92.156863%)" stroke-opacity="1" stroke-miterlimit="10" d="M 462.019531 323.808594 L 462.019531 82.050781 "/>
</g>
<path fill="none" stroke-width="2.133957" stroke-linecap="butt" stroke-linejoin="round" stroke="rgb(0%, 62.352941%, 88.235294%)" stroke-opacity="1" stroke-miterlimit="10" d="M 46.613281 306.21875 L 51.664062 311.6875 L 56.878906 312.667969 L 61.929688 312.351562 L 67.148438 311.574219 L 72.367188 310.875 L 77.414062 311.023438 L 82.632812 310.109375 L 87.683594 308.378906 L 92.898438 311.839844 L 98.117188 311.636719 L 103 310.917969 L 108.21875 304.957031 L 113.265625 304.851562 L 118.484375 306.324219 L 123.535156 304.503906 L 128.75 307.269531 L 133.96875 305.296875 L 139.019531 304.449219 L 144.238281 302.230469 L 149.285156 301.1875 L 154.503906 299.828125 L 159.722656 300.476562 L 164.433594 300.976562 L 169.652344 299.617188 L 174.703125 300.703125 L 179.921875 302.160156 L 184.96875 301.53125 L 190.1875 302.304688 L 195.40625 303.046875 L 200.457031 303.042969 L 205.671875 302.902344 L 210.722656 299.757812 L 215.941406 299.253906 L 221.160156 298.714844 L 225.871094 297.882812 L 231.089844 295.980469 L 236.136719 295.839844 L 241.355469 293.152344 L 246.40625 288.464844 L 251.625 285.269531 L 256.839844 283.027344 L 261.890625 278.027344 L 267.109375 274.515625 L 272.160156 270.042969 L 277.375 266.414062 L 282.59375 266.210938 L 287.308594 265.597656 L 292.523438 262.789062 L 297.574219 262.042969 L 302.792969 258.074219 L 307.84375 255.960938 L 313.058594 257.546875 L 318.277344 254.222656 L 323.328125 248.226562 L 328.546875 245.558594 L 333.59375 243.132812 L 338.8125 239.132812 L 344.03125 237.726562 L 348.910156 236.449219 L 354.128906 235.285156 L 359.179688 231.824219 L 364.398438 230.40625 L 369.445312 225.566406 L 374.664062 226.5625 L 379.882812 221.953125 L 384.929688 219.863281 L 390.148438 215.871094 L 395.199219 212.796875 L 400.417969 210.765625 L 405.632812 208.445312 L 410.347656 206.75 L 415.566406 203.183594 L 420.613281 200.925781 L 425.832031 197.820312 L 430.882812 195.378906 L 436.101562 194.429688 L 441.316406 190.917969 L 446.367188 191.308594 L 451.585938 190.363281 L 456.632812 190.203125 L 461.851562 189.324219 L 467.070312 188.675781 L 471.785156 187.882812 L 477 183.746094 "/>
<path fill="none" stroke-width="2.133957" stroke-linecap="butt" stroke-linejoin="round" stroke="rgb(99.607843%, 79.215686%, 3.921569%)" stroke-opacity="1" stroke-miterlimit="10" d="M 46.613281 306.21875 L 51.664062 306.066406 L 56.878906 305.304688 L 61.929688 303.957031 L 67.148438 301.816406 L 72.367188 301.109375 L 77.414062 299.515625 L 82.632812 298.320312 L 87.683594 297.132812 L 92.898438 294.667969 L 98.117188 292.96875 L 103 291.761719 L 108.21875 288.546875 L 113.265625 286.878906 L 118.484375 286.253906 L 123.535156 285.761719 L 128.75 284.320312 L 133.96875 285.335938 L 139.019531 285 L 144.238281 284.261719 L 149.285156 280.820312 L 154.503906 277.683594 L 159.722656 276.308594 L 164.433594 273.792969 L 169.652344 273.128906 L 174.703125 270.085938 L 179.921875 267.871094 L 184.96875 261.871094 L 190.1875 259.175781 L 195.40625 256.511719 L 200.457031 252.894531 L 205.671875 249.539062 L 210.722656 244.082031 L 215.941406 240.234375 L 221.160156 236.65625 L 225.871094 233.929688 L 231.089844 230.050781 L 236.136719 224.941406 L 241.355469 221.53125 L 246.40625 216.09375 L 251.625 212.640625 L 256.839844 209.933594 L 261.890625 207.113281 L 267.109375 205.265625 L 272.160156 202.660156 L 277.375 200.285156 L 282.59375 196.972656 L 287.308594 195.464844 L 292.523438 192.285156 L 297.574219 190.195312 L 302.792969 187.015625 L 307.84375 182.976562 L 313.058594 189.246094 L 318.277344 190.476562 L 323.328125 188.058594 L 328.546875 185.851562 L 333.59375 185.683594 L 338.8125 185.46875 L 344.03125 184.414062 L 348.910156 183.917969 L 354.128906 180.949219 L 359.179688 179.085938 L 364.398438 177.660156 L 369.445312 170.621094 L 374.664062 169.15625 L 379.882812 172.765625 L 384.929688 167.789062 L 390.148438 164.269531 L 395.199219 159.542969 L 400.417969 155.03125 L 405.632812 152.105469 L 410.347656 147.621094 L 415.566406 145.824219 L 420.613281 141.78125 L 425.832031 138.929688 L 430.882812 132.652344 L 436.101562 129.71875 L 441.316406 126.984375 L 446.367188 121.660156 L 451.585938 116.011719 L 456.632812 111.480469 L 461.851562 105.066406 L 467.070312 101.40625 L 471.785156 98.101562 L 477 93.039062 "/>
<path fill="none" stroke-width="2.133957" stroke-linecap="butt" stroke-linejoin="round" stroke="rgb(0%, 0%, 0%)" stroke-opacity="1" stroke-miterlimit="10" d="M 46.613281 306.21875 L 51.664062 306.320312 L 56.878906 306.828125 L 61.929688 304.210938 L 67.148438 306.0625 L 72.367188 306.683594 L 77.414062 307.109375 L 82.632812 308.242188 L 87.683594 308.8125 L 92.898438 308.21875 L 98.117188 308.914062 L 103 307.078125 L 108.21875 302.519531 L 113.265625 301.453125 L 118.484375 302.027344 L 123.535156 302.75 L 128.75 307.28125 L 133.96875 308.914062 L 139.019531 310.621094 L 144.238281 312.820312 L 149.285156 312.335938 L 154.503906 310.984375 L 159.722656 311.511719 L 164.433594 309.898438 L 169.652344 307.15625 L 174.703125 306.109375 L 179.921875 304.019531 L 184.96875 297.433594 L 190.1875 293.808594 L 195.40625 291.488281 L 200.457031 287.925781 L 205.671875 284.972656 L 210.722656 278.621094 L 215.941406 269.953125 L 221.160156 266.46875 L 225.871094 263.042969 L 231.089844 258.390625 L 236.136719 254.503906 L 241.355469 250.601562 L 246.40625 233.589844 L 251.625 232.699219 L 256.839844 230.207031 L 261.890625 229.160156 L 267.109375 225.957031 L 272.160156 224.128906 L 277.375 226.058594 L 282.59375 226.308594 L 287.308594 224.347656 L 292.523438 222.695312 L 297.574219 222.109375 L 302.792969 219.46875 L 307.84375 215.539062 L 313.058594 215.300781 L 318.277344 212.40625 L 323.328125 210.390625 L 328.546875 208.144531 L 333.59375 204.824219 L 338.8125 202.28125 L 344.03125 200.578125 L 348.910156 197.761719 L 354.128906 193.941406 L 359.179688 192.335938 L 364.398438 190.917969 L 369.445312 186.773438 L 374.664062 186.015625 L 379.882812 185.125 L 384.929688 183.128906 L 390.148438 180.972656 L 395.199219 178.003906 L 400.417969 175.128906 L 405.632812 174.015625 L 410.347656 171.417969 L 415.566406 169.214844 L 420.613281 164.636719 L 425.832031 161.703125 L 430.882812 154.101562 L 436.101562 151.53125 L 441.316406 146.9375 L 446.367188 142.8125 L 451.585938 138.003906 L 456.632812 135.507812 L 461.851562 131.601562 L 467.070312 129.734375 L 471.785156 125.929688 L 477 119.894531 "/>
<path fill="none" stroke-width="2.133957" stroke-linecap="butt" stroke-linejoin="round" stroke="rgb(87.45098%, 0%, 0%)" stroke-opacity="1" stroke-miterlimit="10" d="M 46.613281 306.21875 L 51.664062 305.195312 L 56.878906 304.839844 L 61.929688 302.324219 L 67.148438 303.085938 L 72.367188 303.070312 L 77.414062 302.433594 L 82.632812 303.65625 L 87.683594 303.878906 L 92.898438 303.9375 L 98.117188 304.414062 L 103 304.152344 L 108.21875 301.785156 L 113.265625 303.441406 L 118.484375 305.519531 L 123.535156 304.476562 L 128.75 307.410156 L 133.96875 309.539062 L 139.019531 310.539062 L 144.238281 312.441406 L 149.285156 312.324219 L 154.503906 311.992188 L 159.722656 312.246094 L 164.433594 311.507812 L 169.652344 310.199219 L 174.703125 309.070312 L 179.921875 307.097656 L 184.96875 301.941406 L 190.1875 299.6875 L 195.40625 298.207031 L 200.457031 295.863281 L 205.671875 294.128906 L 210.722656 292.367188 L 215.941406 291.296875 L 221.160156 290.371094 L 225.871094 289.320312 L 231.089844 287.195312 L 236.136719 284.914062 L 241.355469 282.789062 L 246.40625 278.082031 L 251.625 275.707031 L 256.839844 272.855469 L 261.890625 270.648438 L 267.109375 269.511719 L 272.160156 268.554688 L 277.375 268.113281 L 282.59375 268.34375 L 287.308594 267.300781 L 292.523438 267.183594 L 297.574219 265.8125 L 302.792969 264.242188 L 307.84375 259.992188 L 313.058594 257.867188 L 318.277344 253.539062 L 323.328125 250.191406 L 328.546875 249.882812 L 333.59375 246.765625 L 338.8125 245.875 L 344.03125 244.308594 L 348.910156 242.785156 L 354.128906 241.277344 L 359.179688 238.242188 L 364.398438 235.386719 L 369.445312 231.167969 L 374.664062 230.363281 L 379.882812 228.027344 L 384.929688 226.035156 L 390.148438 223.589844 L 395.199219 220.609375 L 400.417969 216.71875 L 405.632812 215.945312 L 410.347656 213.042969 L 415.566406 213.457031 L 420.613281 210.082031 L 425.832031 207.984375 L 430.882812 203.714844 L 436.101562 201.585938 L 441.316406 197.992188 L 446.367188 193.390625 L 451.585938 188.707031 L 456.632812 184.214844 L 461.851562 177.785156 L 467.070312 174.503906 L 471.785156 172.0625 L 477 167.664062 "/>
<g clip-path="url(#clip-19)">
<path fill="none" stroke-width="1.066978" stroke-linecap="round" stroke-linejoin="round" stroke="rgb(20%, 20%, 20%)" stroke-opacity="1" stroke-miterlimit="10" d="M 25.09375 323.808594 L 498.519531 323.808594 L 498.519531 82.054688 L 25.09375 82.054688 Z M 25.09375 323.808594 "/>
</g>
<g fill="rgb(0%, 0%, 0%)" fill-opacity="1">
<use xlink:href="#glyph-0-0" x="5.476562" y="309.871094"/>
<use xlink:href="#glyph-0-1" x="10.370703" y="309.871094"/>
<use xlink:href="#glyph-0-1" x="15.264844" y="309.871094"/>
</g>
<g fill="rgb(0%, 0%, 0%)" fill-opacity="1">
<use xlink:href="#glyph-0-0" x="5.476562" y="264.140625"/>
<use xlink:href="#glyph-0-0" x="10.370703" y="264.140625"/>
<use xlink:href="#glyph-0-1" x="15.264844" y="264.140625"/>
</g>
<g fill="rgb(0%, 0%, 0%)" fill-opacity="1">
<use xlink:href="#glyph-0-0" x="5.476562" y="218.40625"/>
<use xlink:href="#glyph-0-2" x="10.370703" y="218.40625"/>
<use xlink:href="#glyph-0-1" x="15.264844" y="218.40625"/>
</g>
<g fill="rgb(0%, 0%, 0%)" fill-opacity="1">
<use xlink:href="#glyph-0-0" x="5.476562" y="172.675781"/>
<use xlink:href="#glyph-0-3" x="10.370703" y="172.675781"/>
<use xlink:href="#glyph-0-1" x="15.264844" y="172.675781"/>
</g>
<g fill="rgb(0%, 0%, 0%)" fill-opacity="1">
<use xlink:href="#glyph-0-0" x="5.476562" y="126.945312"/>
<use xlink:href="#glyph-0-4" x="10.370703" y="126.945312"/>
<use xlink:href="#glyph-0-1" x="15.264844" y="126.945312"/>
</g>
<path fill="none" stroke-width="1.066978" stroke-linecap="butt" stroke-linejoin="round" stroke="rgb(20%, 20%, 20%)" stroke-opacity="1" stroke-miterlimit="10" d="M 22.355469 306.21875 L 25.09375 306.21875 "/>
<path fill="none" stroke-width="1.066978" stroke-linecap="butt" stroke-linejoin="round" stroke="rgb(20%, 20%, 20%)" stroke-opacity="1" stroke-miterlimit="10" d="M 22.355469 260.488281 L 25.09375 260.488281 "/>
<path fill="none" stroke-width="1.066978" stroke-linecap="butt" stroke-linejoin="round" stroke="rgb(20%, 20%, 20%)" stroke-opacity="1" stroke-miterlimit="10" d="M 22.355469 214.757812 L 25.09375 214.757812 "/>
<path fill="none" stroke-width="1.066978" stroke-linecap="butt" stroke-linejoin="round" stroke="rgb(20%, 20%, 20%)" stroke-opacity="1" stroke-miterlimit="10" d="M 22.355469 169.027344 L 25.09375 169.027344 "/>
<path fill="none" stroke-width="1.066978" stroke-linecap="butt" stroke-linejoin="round" stroke="rgb(20%, 20%, 20%)" stroke-opacity="1" stroke-miterlimit="10" d="M 22.355469 123.296875 L 25.09375 123.296875 "/>
<path fill="none" stroke-width="1.066978" stroke-linecap="butt" stroke-linejoin="round" stroke="rgb(20%, 20%, 20%)" stroke-opacity="1" stroke-miterlimit="10" d="M 93.070312 326.546875 L 93.070312 323.808594 "/>
<path fill="none" stroke-width="1.066978" stroke-linecap="butt" stroke-linejoin="round" stroke="rgb(20%, 20%, 20%)" stroke-opacity="1" stroke-miterlimit="10" d="M 216.109375 326.546875 L 216.109375 323.808594 "/>
<path fill="none" stroke-width="1.066978" stroke-linecap="butt" stroke-linejoin="round" stroke="rgb(20%, 20%, 20%)" stroke-opacity="1" stroke-miterlimit="10" d="M 338.980469 326.546875 L 338.980469 323.808594 "/>
<path fill="none" stroke-width="1.066978" stroke-linecap="butt" stroke-linejoin="round" stroke="rgb(20%, 20%, 20%)" stroke-opacity="1" stroke-miterlimit="10" d="M 462.019531 326.546875 L 462.019531 323.808594 "/>
<g fill="rgb(0%, 0%, 0%)" fill-opacity="1">
<use xlink:href="#glyph-0-2" x="83.28125" y="336.039062"/>
<use xlink:href="#glyph-0-1" x="88.175391" y="336.039062"/>
<use xlink:href="#glyph-0-2" x="93.069531" y="336.039062"/>
<use xlink:href="#glyph-0-1" x="97.963672" y="336.039062"/>
</g>
<g fill="rgb(0%, 0%, 0%)" fill-opacity="1">
<use xlink:href="#glyph-0-2" x="206.320312" y="336.039062"/>
<use xlink:href="#glyph-0-1" x="211.214453" y="336.039062"/>
<use xlink:href="#glyph-0-2" x="216.108594" y="336.039062"/>
<use xlink:href="#glyph-0-2" x="221.002734" y="336.039062"/>
</g>
<g fill="rgb(0%, 0%, 0%)" fill-opacity="1">
<use xlink:href="#glyph-0-2" x="329.191406" y="336.039062"/>
<use xlink:href="#glyph-0-1" x="334.085547" y="336.039062"/>
<use xlink:href="#glyph-0-2" x="338.979687" y="336.039062"/>
<use xlink:href="#glyph-0-4" x="343.873828" y="336.039062"/>
</g>
<g fill="rgb(0%, 0%, 0%)" fill-opacity="1">
<use xlink:href="#glyph-0-2" x="452.230469" y="336.039062"/>
<use xlink:href="#glyph-0-1" x="457.124609" y="336.039062"/>
<use xlink:href="#glyph-0-2" x="462.01875" y="336.039062"/>
<use xlink:href="#glyph-0-5" x="466.912891" y="336.039062"/>
</g>
<path fill-rule="nonzero" fill="rgb(100%, 100%, 100%)" fill-opacity="1" d="M 165.429688 71.09375 L 358.183594 71.09375 L 358.183594 42.855469 L 165.429688 42.855469 Z M 165.429688 71.09375 "/>
<path fill-rule="nonzero" fill="rgb(100%, 100%, 100%)" fill-opacity="1" d="M 170.910156 65.613281 L 188.191406 65.613281 L 188.191406 48.332031 L 170.910156 48.332031 Z M 170.910156 65.613281 "/>
<path fill="none" stroke-width="2.133957" stroke-linecap="butt" stroke-linejoin="round" stroke="rgb(0%, 62.352941%, 88.235294%)" stroke-opacity="1" stroke-miterlimit="10" d="M 172.636719 56.972656 L 186.460938 56.972656 "/>
<path fill-rule="nonzero" fill="rgb(100%, 100%, 100%)" fill-opacity="1" d="M 216.75 65.613281 L 234.03125 65.613281 L 234.03125 48.332031 L 216.75 48.332031 Z M 216.75 65.613281 "/>
<path fill="none" stroke-width="2.133957" stroke-linecap="butt" stroke-linejoin="round" stroke="rgb(99.607843%, 79.215686%, 3.921569%)" stroke-opacity="1" stroke-miterlimit="10" d="M 218.476562 56.972656 L 232.300781 56.972656 "/>
<path fill-rule="nonzero" fill="rgb(100%, 100%, 100%)" fill-opacity="1" d="M 263.082031 65.613281 L 280.363281 65.613281 L 280.363281 48.332031 L 263.082031 48.332031 Z M 263.082031 65.613281 "/>
<path fill="none" stroke-width="2.133957" stroke-linecap="butt" stroke-linejoin="round" stroke="rgb(0%, 0%, 0%)" stroke-opacity="1" stroke-miterlimit="10" d="M 264.808594 56.972656 L 278.632812 56.972656 "/>
<path fill-rule="nonzero" fill="rgb(100%, 100%, 100%)" fill-opacity="1" d="M 309.414062 65.613281 L 326.695312 65.613281 L 326.695312 48.332031 L 309.414062 48.332031 Z M 309.414062 65.613281 "/>
<path fill="none" stroke-width="2.133957" stroke-linecap="butt" stroke-linejoin="round" stroke="rgb(87.45098%, 0%, 0%)" stroke-opacity="1" stroke-miterlimit="10" d="M 311.140625 56.972656 L 324.964844 56.972656 "/>
<g fill="rgb(0%, 0%, 0%)" fill-opacity="1">
<use xlink:href="#glyph-0-6" x="193.667969" y="60.625"/>
<use xlink:href="#glyph-0-7" x="199.5375" y="60.625"/>
<use xlink:href="#glyph-0-8" x="205.892578" y="60.625"/>
</g>
<g fill="rgb(0%, 0%, 0%)" fill-opacity="1">
<use xlink:href="#glyph-0-9" x="239.507812" y="60.625"/>
<use xlink:href="#glyph-0-10" x="245.862891" y="60.625"/>
<use xlink:href="#glyph-0-6" x="251.732422" y="60.625"/>
</g>
<g fill="rgb(0%, 0%, 0%)" fill-opacity="1">
<use xlink:href="#glyph-0-7" x="285.839844" y="60.625"/>
<use xlink:href="#glyph-0-6" x="292.194922" y="60.625"/>
<use xlink:href="#glyph-0-10" x="298.064453" y="60.625"/>
</g>
<g fill="rgb(0%, 0%, 0%)" fill-opacity="1">
<use xlink:href="#glyph-0-11" x="332.175781" y="60.625"/>
<use xlink:href="#glyph-0-10" x="340.481641" y="60.625"/>
<use xlink:href="#glyph-0-9" x="346.351172" y="60.625"/>
</g>
<g fill="rgb(0%, 0%, 0%)" fill-opacity="1">
<use xlink:href="#glyph-1-0" x="25.09375" y="34.058594"/>
<use xlink:href="#glyph-1-1" x="28.149902" y="34.058594"/>
<use xlink:href="#glyph-1-2" x="34.267578" y="34.058594"/>
<use xlink:href="#glyph-1-3" x="40.385254" y="34.058594"/>
<use xlink:href="#glyph-1-4" x="46.50293" y="34.058594"/>
<use xlink:href="#glyph-1-3" x="52.00293" y="34.058594"/>
<use xlink:href="#glyph-1-2" x="58.120605" y="34.058594"/>
<use xlink:href="#glyph-1-5" x="64.238281" y="34.058594"/>
<use xlink:href="#glyph-1-6" x="67.294434" y="34.058594"/>
<use xlink:href="#glyph-1-7" x="70.350586" y="34.058594"/>
<use xlink:href="#glyph-1-5" x="76.468262" y="34.058594"/>
<use xlink:href="#glyph-1-8" x="79.524414" y="34.058594"/>
<use xlink:href="#glyph-1-9" x="88.6875" y="34.058594"/>
<use xlink:href="#glyph-1-10" x="94.805176" y="34.058594"/>
<use xlink:href="#glyph-1-11" x="98.468262" y="34.058594"/>
<use xlink:href="#glyph-1-12" x="103.968262" y="34.058594"/>
<use xlink:href="#glyph-1-5" x="110.085938" y="34.058594"/>
<use xlink:href="#glyph-1-13" x="113.14209" y="34.058594"/>
<use xlink:href="#glyph-1-14" x="119.259766" y="34.058594"/>
<use xlink:href="#glyph-1-15" x="125.377441" y="34.058594"/>
<use xlink:href="#glyph-1-16" x="131.495117" y="34.058594"/>
</g>
<g fill="rgb(0%, 0%, 0%)" fill-opacity="1">
<use xlink:href="#glyph-2-0" x="25.09375" y="15.929688"/>
<use xlink:href="#glyph-2-1" x="36.089453" y="15.929688"/>
<use xlink:href="#glyph-2-2" x="43.430664" y="15.929688"/>
<use xlink:href="#glyph-2-3" x="47.098047" y="15.929688"/>
<use xlink:href="#glyph-2-4" x="55.161133" y="15.929688"/>
<use xlink:href="#glyph-2-5" x="60.298047" y="15.929688"/>
<use xlink:href="#glyph-2-6" x="63.96543" y="15.929688"/>
<use xlink:href="#glyph-2-7" x="73.498047" y="15.929688"/>
<use xlink:href="#glyph-2-8" x="81.561133" y="15.929688"/>
<use xlink:href="#glyph-2-9" x="88.902344" y="15.929688"/>
<use xlink:href="#glyph-2-4" x="93.298047" y="15.929688"/>
<use xlink:href="#glyph-2-1" x="98.434961" y="15.929688"/>
<use xlink:href="#glyph-2-10" x="105.776172" y="15.929688"/>
<use xlink:href="#glyph-2-11" x="109.443555" y="15.929688"/>
<use xlink:href="#glyph-2-1" x="113.110937" y="15.929688"/>
<use xlink:href="#glyph-2-12" x="120.452148" y="15.929688"/>
<use xlink:href="#glyph-2-5" x="128.515234" y="15.929688"/>
<use xlink:href="#glyph-2-13" x="132.182617" y="15.929688"/>
<use xlink:href="#glyph-2-1" x="141.715234" y="15.929688"/>
<use xlink:href="#glyph-2-12" x="149.056445" y="15.929688"/>
<use xlink:href="#glyph-2-14" x="157.119531" y="15.929688"/>
<use xlink:href="#glyph-2-8" x="164.460742" y="15.929688"/>
<use xlink:href="#glyph-2-15" x="171.801953" y="15.929688"/>
<use xlink:href="#glyph-2-5" x="174.94082" y="15.929688"/>
<use xlink:href="#glyph-2-16" x="178.608203" y="15.929688"/>
<use xlink:href="#glyph-2-3" x="186.671289" y="15.929688"/>
<use xlink:href="#glyph-2-9" x="194.734375" y="15.929688"/>
<use xlink:href="#glyph-2-1" x="199.130078" y="15.929688"/>
<use xlink:href="#glyph-2-10" x="206.471289" y="15.929688"/>
<use xlink:href="#glyph-2-5" x="210.138672" y="15.929688"/>
<use xlink:href="#glyph-2-17" x="213.806055" y="15.929688"/>
<use xlink:href="#glyph-2-18" x="223.338672" y="15.929688"/>
<use xlink:href="#glyph-2-8" x="230.679883" y="15.929688"/>
<use xlink:href="#glyph-2-11" x="238.021094" y="15.929688"/>
<use xlink:href="#glyph-2-19" x="241.688477" y="15.929688"/>
<use xlink:href="#glyph-2-18" x="249.751562" y="15.929688"/>
<use xlink:href="#glyph-2-12" x="257.092773" y="15.929688"/>
<use xlink:href="#glyph-2-9" x="265.155859" y="15.929688"/>
<use xlink:href="#glyph-2-5" x="269.551562" y="15.929688"/>
<use xlink:href="#glyph-2-20" x="273.218945" y="15.929688"/>
<use xlink:href="#glyph-2-3" x="281.282031" y="15.929688"/>
<use xlink:href="#glyph-2-1" x="289.345117" y="15.929688"/>
<use xlink:href="#glyph-2-12" x="296.686328" y="15.929688"/>
<use xlink:href="#glyph-2-8" x="304.749414" y="15.929688"/>
<use xlink:href="#glyph-2-5" x="312.090625" y="15.929688"/>
<use xlink:href="#glyph-2-1" x="315.758008" y="15.929688"/>
<use xlink:href="#glyph-2-12" x="323.099219" y="15.929688"/>
<use xlink:href="#glyph-2-19" x="331.162305" y="15.929688"/>
<use xlink:href="#glyph-2-5" x="339.225391" y="15.929688"/>
<use xlink:href="#glyph-2-21" x="342.892773" y="15.929688"/>
<use xlink:href="#glyph-2-11" x="350.955859" y="15.929688"/>
<use xlink:href="#glyph-2-12" x="354.623242" y="15.929688"/>
<use xlink:href="#glyph-2-1" x="362.686328" y="15.929688"/>
<use xlink:href="#glyph-2-12" x="370.027539" y="15.929688"/>
<use xlink:href="#glyph-2-22" x="378.090625" y="15.929688"/>
<use xlink:href="#glyph-2-18" x="385.431836" y="15.929688"/>
<use xlink:href="#glyph-2-5" x="392.773047" y="15.929688"/>
<use xlink:href="#glyph-2-20" x="396.44043" y="15.929688"/>
<use xlink:href="#glyph-2-18" x="404.503516" y="15.929688"/>
<use xlink:href="#glyph-2-1" x="411.844727" y="15.929688"/>
<use xlink:href="#glyph-2-8" x="419.185938" y="15.929688"/>
<use xlink:href="#glyph-2-18" x="426.527148" y="15.929688"/>
<use xlink:href="#glyph-2-8" x="433.868359" y="15.929688"/>
</g>
<g fill="rgb(0%, 0%, 0%)" fill-opacity="1">
<use xlink:href="#glyph-0-12" x="441.785156" y="351.667969"/>
<use xlink:href="#glyph-0-13" x="447.654688" y="351.667969"/>
<use xlink:href="#glyph-0-14" x="452.548828" y="351.667969"/>
<use xlink:href="#glyph-0-15" x="457.442969" y="351.667969"/>
<use xlink:href="#glyph-0-16" x="460.373437" y="351.667969"/>
<use xlink:href="#glyph-0-17" x="464.773437" y="351.667969"/>
<use xlink:href="#glyph-0-18" x="469.667578" y="351.667969"/>
<use xlink:href="#glyph-0-19" x="472.1125" y="351.667969"/>
<use xlink:href="#glyph-0-6" x="474.557422" y="351.667969"/>
<use xlink:href="#glyph-0-20" x="480.426953" y="351.667969"/>
<use xlink:href="#glyph-0-21" x="486.296484" y="351.667969"/>
<use xlink:href="#glyph-0-6" x="492.651562" y="351.667969"/>
</g>
</svg>
